<svg width="13" height="13" viewBox="0 0 13 13" fill="none" xmlns="http://www.w3.org/2000/svg">
<path d="M6.47009 1.19043H2.21557C1.89318 1.19043 1.584 1.31697 1.35603 1.54221C1.12807 1.76745 1 2.07294 1 2.39147V10.7988C1 11.1173 1.12807 11.4228 1.35603 11.648C1.584 11.8733 1.89318 11.9998 2.21557 11.9998H10.7246C11.047 11.9998 11.3562 11.8733 11.5841 11.648C11.8121 11.4228 11.9402 11.1173 11.9402 10.7988V6.59512" stroke="#808080" stroke-linecap="round" stroke-linejoin="round"/>
<path d="M3.03708 7.54654L3.33556 7.25071C4.20438 7.44376 5.29152 8.84323 5.7265 9.51884L5.40053 9.85432H3.02344L3.03708 7.54654Z" fill="#808080"/>
<path d="M6.3241 8.86128C5.71563 7.77699 4.51318 6.89756 3.98802 6.59339L9.23062 1.4544C10.5127 2.01265 11.286 3.23446 11.5124 3.77558L6.3241 8.86128Z" fill="#808080"/>
<path d="M12.1915 3.06441C11.42 1.71172 10.3217 0.997806 9.86897 0.809933L10.6567 0.00508474C12.6994 -0.102271 13.0652 1.51701 12.9928 2.34007L12.1915 3.06441Z" fill="#808080"/>
</svg>
