<svg width="14" height="16" viewBox="0 0 14 16" fill="none" xmlns="http://www.w3.org/2000/svg">
<path fill-rule="evenodd" clip-rule="evenodd" d="M12.3962 2.52045C12.4291 2.53667 12.4584 2.55788 12.4864 2.58533C12.4937 2.59282 12.4998 2.6003 12.5059 2.60779C12.8584 2.89352 13.2108 3.21669 13.467 3.60599C13.7499 4.03646 13.9072 4.53431 13.8121 5.12449C13.7719 5.37155 13.6804 5.58741 13.5414 5.77831C13.4413 5.91432 13.3194 6.0341 13.1755 6.13891C13.1682 6.32981 13.1657 6.51698 13.1657 6.70289C13.1669 6.94121 13.1743 7.18702 13.1877 7.43906C13.2182 8.03049 13.3048 8.62691 13.3913 9.21835C13.484 9.8547 13.5767 10.4861 13.6011 11.1436C13.634 11.9858 13.5365 12.6783 13.2645 13.1675C12.9621 13.714 12.4706 14.0059 11.7461 13.9797C10.8814 13.9635 10.3497 13.4669 10.1094 12.5498C9.89967 11.7475 9.93138 10.6021 10.1692 9.16095C10.1619 8.01926 10.0167 7.15457 9.72893 6.57188C9.54111 6.19132 9.28622 5.93927 8.96425 5.81949V13.296C9.06913 13.3471 9.16426 13.417 9.24475 13.5006C9.43013 13.6903 9.54599 13.9535 9.54599 14.243V14.9892C9.54599 15.1776 9.39598 15.3311 9.21182 15.3311H0.646667C0.462509 15.3311 0.3125 15.1776 0.3125 14.9892V14.243C0.3125 13.9535 0.428361 13.6915 0.613738 13.5006C0.671058 13.442 0.735696 13.3896 0.805213 13.3459V1.81173C0.805213 1.31263 1.00401 0.859697 1.32476 0.53154C1.64551 0.203383 2.08822 0 2.57605 0H7.18365C7.6727 0 8.11785 0.20463 8.43982 0.534035C8.7618 0.86344 8.96181 1.31887 8.96181 1.82046V5.10952C9.55453 5.24178 10.007 5.62983 10.3216 6.26618C10.6595 6.9487 10.8278 7.92693 10.8327 9.19339C10.8327 9.21336 10.8314 9.23332 10.8278 9.25204H10.829C10.6034 10.6083 10.5668 11.6664 10.7522 12.3739C10.907 12.9691 11.2339 13.291 11.7571 13.2985H11.7632C12.2096 13.3134 12.5059 13.1463 12.6803 12.8306C12.8864 12.4587 12.9584 11.8885 12.9303 11.1698C12.9072 10.5609 12.8157 9.94079 12.7255 9.31692C12.6376 8.7155 12.5498 8.1091 12.5169 7.47275C12.5035 7.22195 12.4962 6.96617 12.4949 6.70164C12.4937 6.49202 12.4974 6.2849 12.5059 6.08151C11.8827 5.52252 11.5034 4.96353 11.3863 4.40704C11.2754 3.87924 11.3924 3.37266 11.7522 2.88853C11.4778 2.69638 11.1985 2.53916 10.9156 2.41314C10.529 2.24095 10.5265 2.22598 10.1216 2.1586C9.93992 2.12865 9.81674 1.95272 9.84601 1.76681C9.87528 1.58089 10.0472 1.45487 10.229 1.48482C10.6875 1.56093 10.7424 1.59088 11.1827 1.78677C11.601 1.97393 12.0047 2.21475 12.3962 2.52045ZM12.2852 3.30653C12.0522 3.62595 11.9742 3.94537 12.0425 4.26729C12.1242 4.65659 12.4084 5.07084 12.8816 5.5088C12.9291 5.46513 12.9718 5.41896 13.0072 5.3703C13.0816 5.26923 13.1316 5.1507 13.1523 5.01594C13.2157 4.62165 13.1072 4.28351 12.912 3.98655C12.7511 3.74074 12.5267 3.51365 12.2852 3.30653ZM2.97852 1.56467H6.85924C7.06047 1.56467 7.24341 1.64827 7.37634 1.78428C7.38488 1.79426 7.39464 1.80299 7.40318 1.81422C7.52026 1.94773 7.59221 2.12366 7.59221 2.31332V4.84625C7.59221 5.05212 7.5105 5.24053 7.37756 5.37529C7.24585 5.51005 7.06291 5.59489 6.86046 5.59489H2.97852C2.7785 5.59489 2.59679 5.51005 2.46263 5.37529L2.46141 5.37654C2.3297 5.24178 2.24676 5.05337 2.24676 4.84749V2.31207C2.24676 2.1062 2.32848 1.91903 2.46141 1.78303C2.47117 1.77429 2.47971 1.76431 2.49068 1.75683C2.62118 1.63704 2.79192 1.56467 2.97852 1.56467ZM8.65813 13.9099C8.64837 13.9111 8.63984 13.9111 8.63008 13.9111H1.19792C1.15645 13.9298 1.11865 13.956 1.08694 13.9885C1.0223 14.0546 0.982053 14.1457 0.982053 14.2468V14.651H8.87766V14.2468C8.87766 14.1469 8.83741 14.0559 8.77277 13.9885C8.73984 13.9548 8.70082 13.9286 8.65813 13.9099Z" fill="#808080"/>
</svg>
