<svg width="18" height="18" viewBox="0 0 18 18" fill="none" xmlns="http://www.w3.org/2000/svg">
<path d="M7.28514 5.56559C7.28514 5.05991 7.69495 4.64976 8.20063 4.64976C8.7063 4.64976 9.11611 5.05991 9.11611 5.56559V9.40335L11.6545 10.5192C12.117 10.7228 12.3267 11.2623 12.1232 11.7244C11.9197 12.1865 11.3801 12.3962 10.918 12.1931L7.87908 10.857C7.53192 10.7269 7.28514 10.3922 7.28514 9.99971V5.56559ZM0.186947 5.83348C0.160642 5.75561 0.144375 5.67288 0.139875 5.5867L0.00142766 3.04308C-0.0245312 2.53947 0.363121 2.11029 0.866724 2.08467C1.37033 2.05872 1.79951 2.44637 1.82513 2.94997L1.85074 3.42069C2.22794 2.9353 2.65495 2.49076 3.1248 2.09437C3.74677 1.56965 4.4532 1.12212 5.23647 0.772885C7.47481 -0.225666 9.90387 -0.223244 12.0211 0.587712C14.1168 1.39071 15.9101 2.98527 16.9152 5.1852C16.9418 5.23297 16.9643 5.2835 16.9823 5.33611C17.9466 7.55334 17.9352 9.95091 17.1336 12.0442C16.3306 14.14 14.736 15.9332 12.5361 16.938C12.3998 17.0144 12.2462 17.0543 12.09 17.0539C11.5843 17.0539 11.1745 16.6441 11.1745 16.1385C11.1745 15.7404 11.4285 15.4019 11.7833 15.2759C12.0495 15.1538 12.3046 15.0174 12.5479 14.8675C12.5756 14.8447 12.605 14.8232 12.6361 14.8031C13.0283 14.5498 13.4011 14.2597 13.7382 13.9365C13.7603 13.9153 13.7835 13.8953 13.8074 13.8769C14.5225 13.1674 15.07 12.3173 15.4241 11.3932C16.07 9.70759 16.0738 7.77763 15.2822 6.00343L15.2819 6.00239C14.4903 4.22819 13.0532 2.94201 11.37 2.29719C9.68443 1.65168 7.75448 1.64787 5.98028 2.4391C5.37532 2.70858 4.81137 3.06198 4.30506 3.48888C3.96379 3.77685 3.65436 4.0932 3.3792 4.43343L3.49861 4.41855C4.00013 4.35729 4.45666 4.71448 4.51793 5.21601C4.57919 5.71753 4.22199 6.17406 3.72047 6.23533L1.19173 6.54683C0.718931 6.60429 0.286283 6.29036 0.186947 5.83348ZM9.81215 17.704C10.5348 17.623 10.8796 16.7719 10.4165 16.2101C10.2188 15.9703 9.91841 15.8522 9.61037 15.8841C9.07181 15.9446 8.5329 15.9436 7.99469 15.8796C7.67141 15.8412 7.3561 15.9737 7.15742 16.2316C6.72962 16.8002 7.06916 17.6081 7.77421 17.6974C8.45191 17.7784 9.13376 17.7801 9.81215 17.704ZM3.97175 16.2963C4.24588 16.4784 4.5868 16.4991 4.88274 16.3565C5.51579 16.0429 5.57393 15.1655 4.98692 14.7727C4.54354 14.4802 4.11678 14.1164 3.75439 13.7288C3.42281 13.3757 2.8794 13.3394 2.50456 13.6461C2.40775 13.7254 2.32825 13.8238 2.27099 13.9351C2.21373 14.0464 2.17991 14.1683 2.17164 14.2932C2.16337 14.4181 2.18081 14.5434 2.22289 14.6613C2.26497 14.7792 2.3308 14.8872 2.4163 14.9786C2.87802 15.4701 3.40827 15.9249 3.97175 16.2963ZM0.378351 11.4901C0.479417 11.8168 0.749389 12.055 1.08478 12.1193C1.76109 12.245 2.33115 11.6057 2.12763 10.9488C1.96634 10.4296 1.86839 9.90141 1.82859 9.35904C1.78151 8.72461 1.12908 8.33384 0.545872 8.58616C0.190408 8.74711 -0.023839 9.09807 0.0021199 9.48849C0.0512687 10.169 0.175871 10.8384 0.378351 11.4901Z" fill="#808080"/>
</svg>
