<svg width="16" height="16" viewBox="0 0 16 16" fill="none" xmlns="http://www.w3.org/2000/svg">
<circle cx="7.73438" cy="8.28125" r="7" fill="white" stroke="#6F7473"/>
<path d="M6.93466 13.3984V6.85298H8.20881V13.3984H6.93466ZM7.57812 5.84304C7.35653 5.84304 7.16619 5.76918 7.0071 5.62145C6.85085 5.47088 6.77273 5.2919 6.77273 5.08452C6.77273 4.87429 6.85085 4.69531 7.0071 4.54758C7.16619 4.39702 7.35653 4.32173 7.57812 4.32173C7.79972 4.32173 7.98864 4.39702 8.14489 4.54758C8.30398 4.69531 8.38352 4.87429 8.38352 5.08452C8.38352 5.2919 8.30398 5.47088 8.14489 5.62145C7.98864 5.76918 7.79972 5.84304 7.57812 5.84304Z" fill="#6F7473"/>
</svg>
