<svg width="70" height="70" viewBox="0 0 70 70" fill="none" xmlns="http://www.w3.org/2000/svg">
<rect x="0.5" y="0.5" width="69" height="69" rx="9.5" fill="white" stroke="#F0F1F3"/>
<path d="M19.5826 62.3648C26.0485 62.3648 31.2901 57.1232 31.2901 50.6573C31.2901 44.1914 26.0485 38.9497 19.5826 38.9497C13.1167 38.9497 7.875 44.1914 7.875 50.6573C7.875 57.1232 13.1167 62.3648 19.5826 62.3648Z" fill="url(#paint0_linear_4268_19460)"/>
<path d="M27.9807 50.8078H25.9139C25.9139 46.5789 22.5009 43.1523 18.2856 43.1523C14.1111 43.1523 10.7117 46.4838 10.6301 50.6582C10.5485 54.9279 14.5734 58.64 18.8567 58.64H19.4006C23.1807 58.64 28.2526 55.6894 29.0413 52.0996C29.1637 51.5149 28.783 50.9574 28.1983 50.835C28.1303 50.8078 28.0623 50.8078 27.9807 50.8078ZM15.1989 50.9982C15.1989 51.5693 14.7366 52.018 14.1655 52.018C13.5944 52.018 13.1457 51.5557 13.1457 50.9982V49.3393C13.1457 48.7682 13.608 48.3194 14.1791 48.3194C14.7502 48.3194 15.1989 48.7818 15.1989 49.3393V50.9982ZM18.7615 50.9982C18.7615 51.5693 18.2992 52.018 17.7281 52.018C17.157 52.018 16.7083 51.5557 16.7083 50.9982V49.3393C16.7083 48.7682 17.1706 48.3194 17.7417 48.3194C18.3128 48.3194 18.7615 48.7818 18.7615 49.3393V50.9982Z" fill="url(#paint1_linear_4268_19460)"/>
<path d="M52.7032 39.375H46.1718C45.9474 39.375 45.7729 39.5584 45.7729 39.7785C45.6358 45.9899 42.4324 51.8834 36.9106 56.0529C36.7361 56.1874 36.6988 56.4319 36.8234 56.6153L40.65 61.9586C40.7747 62.142 41.0364 62.1787 41.2109 62.0442C44.6636 59.452 47.4432 56.3219 49.4375 52.8616C51.4318 56.3341 54.2114 59.452 57.6641 62.0442C57.8386 62.1787 58.1003 62.142 58.225 61.9586L62.0516 56.6153C62.1763 56.4319 62.1389 56.1874 61.9644 56.0529C56.4426 51.8834 53.2392 45.9899 53.1021 39.7785C53.1021 39.5462 52.9276 39.375 52.7032 39.375Z" fill="#FF875B"/>
<path d="M60.4325 9.3584L50.5977 16.6625L52.4167 12.353L60.4325 9.3584Z" fill="#E2761B"/>
<path fill-rule="evenodd" clip-rule="evenodd" d="M60.444 9.34648C60.4499 9.35736 60.4469 9.37094 60.437 9.37833L50.6022 16.6824C50.5932 16.6891 50.5808 16.689 50.572 16.682C50.5632 16.6751 50.5601 16.6631 50.5645 16.6528L52.3835 12.3433C52.3862 12.337 52.3913 12.3321 52.3977 12.3297L60.4135 9.33507C60.4251 9.33074 60.4381 9.3356 60.444 9.34648ZM52.4252 12.3726L50.6457 16.5882L60.2663 9.44312L52.4252 12.3726Z" fill="#E2761B"/>
<path d="M37.7109 9.3584L47.4667 16.7316L45.7366 12.353L37.7109 9.3584Z" fill="#E4761B"/>
<path fill-rule="evenodd" clip-rule="evenodd" d="M37.714 9.3464C37.72 9.33558 37.7329 9.33075 37.7445 9.33507L45.7702 12.3297C45.7768 12.3322 45.782 12.3373 45.7846 12.3439L47.5147 16.7225C47.5188 16.7328 47.5155 16.7447 47.5066 16.7514C47.4977 16.7581 47.4854 16.7582 47.4765 16.7514L37.7208 9.3782C37.711 9.37076 37.7081 9.35722 37.714 9.3464ZM37.8866 9.44117L47.4359 16.6584L45.7424 12.3724L37.8866 9.44117Z" fill="#E4761B"/>
<path d="M56.8809 26.29L54.2617 30.3031L59.8661 31.8447L61.4773 26.3791L56.8809 26.29Z" fill="#E4761B"/>
<path fill-rule="evenodd" clip-rule="evenodd" d="M56.8498 26.2754C56.8545 26.2683 56.8625 26.264 56.8711 26.2642L61.4675 26.3532C61.4753 26.3533 61.4825 26.3571 61.4871 26.3633C61.4917 26.3696 61.4931 26.3776 61.4909 26.3851L59.8797 31.8507C59.8758 31.8637 59.8623 31.8713 59.8492 31.8677L54.2448 30.3261C54.2372 30.324 54.231 30.3183 54.2282 30.3109C54.2254 30.3035 54.2263 30.2952 54.2306 30.2885L56.8498 26.2754ZM56.8839 26.3142L54.2909 30.2872L59.8389 31.8132L61.434 26.4023L56.8839 26.3142Z" fill="#E4761B"/>
<path d="M36.6914 26.3791L38.2927 31.8447L43.8971 30.3031L41.2779 26.29L36.6914 26.3791Z" fill="#E4761B"/>
<path fill-rule="evenodd" clip-rule="evenodd" d="M41.2632 26.2642C41.2718 26.264 41.2798 26.2683 41.2845 26.2754L43.9037 30.2885C43.908 30.2952 43.9089 30.3035 43.9061 30.3109C43.9033 30.3183 43.8971 30.324 43.8895 30.3261L38.2851 31.8677C38.272 31.8713 38.2584 31.8637 38.2546 31.8507L36.6533 26.385C36.6512 26.3776 36.6526 26.3696 36.6572 26.3633C36.6617 26.3571 36.669 26.3533 36.6767 26.3532L41.2632 26.2642ZM36.7102 26.4023L38.2955 31.8132L43.8434 30.2872L41.2504 26.3142L36.7102 26.4023Z" fill="#E4761B"/>
<path d="M43.5737 19.5097L42.0117 21.8723L47.5763 22.1195L47.3789 16.1396L43.5737 19.5097Z" fill="#E4761B"/>
<path fill-rule="evenodd" clip-rule="evenodd" d="M47.3785 16.1153C47.3873 16.1191 47.3932 16.1277 47.3935 16.1373L47.5909 22.1172C47.5911 22.1241 47.5885 22.1308 47.5835 22.1357C47.5786 22.1405 47.5719 22.1431 47.5649 22.1428L42.0003 21.8957C41.9914 21.8953 41.9833 21.8901 41.9793 21.8821C41.9752 21.8742 41.9757 21.8646 41.9807 21.8571L43.5427 19.4945C43.5439 19.4927 43.5453 19.4911 43.5469 19.4896L47.3521 16.1195C47.3594 16.1131 47.3696 16.1115 47.3785 16.1153ZM43.5823 19.5247L42.0464 21.848L47.5403 22.092L47.3455 16.1918L43.5823 19.5247Z" fill="#E4761B"/>
<path d="M54.5809 19.5095L50.7265 16.0703L50.5977 22.1193L56.1528 21.8721L54.5809 19.5095Z" fill="#E4761B"/>
<path fill-rule="evenodd" clip-rule="evenodd" d="M50.7062 16.0465C50.7151 16.0426 50.7255 16.0443 50.7327 16.0507L54.5872 19.49C54.5888 19.4914 54.5901 19.493 54.5913 19.4947L56.1632 21.8573C56.1682 21.8648 56.1688 21.8744 56.1647 21.8824C56.1606 21.8904 56.1526 21.8956 56.1436 21.896L50.5885 22.1431C50.5816 22.1434 50.5749 22.1409 50.57 22.1361C50.5651 22.1312 50.5624 22.1246 50.5625 22.1177L50.6913 16.0688C50.6915 16.0591 50.6973 16.0504 50.7062 16.0465ZM50.7399 16.1238L50.6128 22.0923L56.0974 21.8482L54.5517 19.5249L50.7399 16.1238Z" fill="#E4761B"/>
<path d="M43.8906 30.3028L47.2314 28.6717L44.3451 26.418L43.8906 30.3028Z" fill="#E4761B"/>
<path fill-rule="evenodd" clip-rule="evenodd" d="M44.3331 26.3955C44.3414 26.392 44.3509 26.3933 44.358 26.3988L47.2442 28.6525C47.251 28.6578 47.2545 28.6662 47.2536 28.6747C47.2527 28.6832 47.2475 28.6907 47.2398 28.6945L43.8991 30.3256C43.8909 30.3295 43.8812 30.3288 43.8738 30.3235C43.8664 30.3182 43.8624 30.3094 43.8635 30.3003L44.318 26.4155C44.319 26.4066 44.3248 26.3989 44.3331 26.3955ZM44.3622 26.4652L43.9181 30.2609L47.1822 28.6672L44.3622 26.4652Z" fill="#E4761B"/>
<path d="M50.918 28.6717L54.2687 30.3028L53.8042 26.418L50.918 28.6717Z" fill="#E4761B"/>
<path fill-rule="evenodd" clip-rule="evenodd" d="M53.8113 26.3955C53.8196 26.3989 53.8254 26.4066 53.8264 26.4155L54.2909 30.3003C54.292 30.3093 54.288 30.3182 54.2806 30.3235C54.2732 30.3287 54.2635 30.3295 54.2553 30.3256L50.9046 28.6945C50.8969 28.6907 50.8917 28.6833 50.8908 28.6747C50.8899 28.6662 50.8934 28.6578 50.9002 28.6525L53.7864 26.3988C53.7935 26.3933 53.803 26.392 53.8113 26.3955ZM50.9622 28.6672L54.2361 30.2609L53.7823 26.4652L50.9622 28.6672Z" fill="#E4761B"/>
<path d="M54.2687 30.3035L50.918 28.6724L51.185 30.8569L51.1552 31.7759L54.2687 30.3035Z" fill="#D7C1B3"/>
<path fill-rule="evenodd" clip-rule="evenodd" d="M50.901 28.6516C50.9085 28.6463 50.9182 28.6455 50.9264 28.6495L54.2771 30.2806C54.2857 30.2848 54.2911 30.2935 54.2911 30.3031C54.291 30.3126 54.2855 30.3213 54.2768 30.3254L51.1633 31.7979C51.1555 31.8016 51.1463 31.8009 51.1391 31.7962C51.1318 31.7914 51.1276 31.7832 51.1278 31.7746L51.1576 30.8575L50.8908 28.6749C50.8897 28.6658 50.8936 28.6569 50.901 28.6516ZM50.9457 28.7142L51.2072 30.8534C51.2074 30.8547 51.2074 30.8559 51.2074 30.8572L51.1789 31.7355L54.2087 30.3026L50.9457 28.7142Z" fill="#D7C1B3"/>
<path d="M43.8906 30.3035L47.0041 31.7759L46.9842 30.8569L47.2314 28.6724L43.8906 30.3035Z" fill="#D7C1B3"/>
<path fill-rule="evenodd" clip-rule="evenodd" d="M47.2432 28.6515C47.2507 28.6568 47.2546 28.6656 47.2536 28.6746L47.0066 30.8575L47.0265 31.7749C47.0267 31.7835 47.0224 31.7916 47.0152 31.7963C47.0079 31.8009 46.9988 31.8016 46.991 31.7979L43.8775 30.3254C43.8689 30.3213 43.8633 30.3126 43.8633 30.3031C43.8632 30.2935 43.8686 30.2848 43.8772 30.2806L47.218 28.6495C47.2262 28.6455 47.2358 28.6463 47.2432 28.6515ZM43.9455 30.3026L46.9759 31.7357L46.9569 30.8569C46.9569 30.8558 46.9569 30.8547 46.957 30.8536L47.1991 28.7141L43.9455 30.3026Z" fill="#D7C1B3"/>
<path d="M47.0607 24.976L44.2734 24.1554L46.2402 23.2559L47.0607 24.976Z" fill="#233447"/>
<path fill-rule="evenodd" clip-rule="evenodd" d="M46.2274 23.2318C46.2397 23.2261 46.2543 23.2314 46.2602 23.2437L47.0807 24.9638C47.0849 24.9726 47.0835 24.9831 47.0772 24.9906C47.0708 24.9981 47.0606 25.0011 47.0512 24.9983L44.2639 24.1778C44.254 24.1749 44.2469 24.1661 44.2462 24.1557C44.2454 24.1454 44.2512 24.1357 44.2606 24.1313L46.2274 23.2318ZM44.3418 24.1489L47.0118 24.9349L46.2258 23.2872L44.3418 24.1489Z" fill="#233447"/>
<path d="M51.0898 24.976L51.9104 23.2559L53.8871 24.1554L51.0898 24.976Z" fill="#233447"/>
<path fill-rule="evenodd" clip-rule="evenodd" d="M51.8776 23.2437C51.8835 23.2314 51.898 23.2261 51.9104 23.2317L53.8871 24.1313C53.8965 24.1356 53.9023 24.1453 53.9016 24.1557C53.9008 24.1661 53.8937 24.1749 53.8838 24.1778L51.0866 24.9983C51.0771 25.0011 51.067 24.9981 51.0606 24.9906C51.0543 24.9831 51.0529 24.9726 51.0571 24.9638L51.8776 23.2437ZM51.912 23.2871L51.126 24.9349L53.8057 24.1489L51.912 23.2871Z" fill="#233447"/>
<path d="M43.9044 30.3031L44.3788 26.29L41.2852 26.3791L43.9044 30.3031Z" fill="#CD6116"/>
<path fill-rule="evenodd" clip-rule="evenodd" d="M44.3751 26.2722C44.38 26.2776 44.3823 26.2848 44.3814 26.2919L43.907 30.305C43.9058 30.3154 43.8983 30.3239 43.8881 30.3263C43.878 30.3287 43.8674 30.3246 43.8617 30.3159L41.2425 26.3918C41.2374 26.3843 41.2369 26.3747 41.2411 26.3666C41.2452 26.3586 41.2534 26.3534 41.2624 26.3532L44.356 26.2642C44.3633 26.264 44.3702 26.2669 44.3751 26.2722ZM41.3088 26.4016L43.8656 30.2322L44.3287 26.3147L41.3088 26.4016Z" fill="#CD6116"/>
<path d="M53.7891 26.29L54.2635 30.3031L56.8827 26.3791L53.7891 26.29Z" fill="#CD6116"/>
<path fill-rule="evenodd" clip-rule="evenodd" d="M53.7682 26.2722C53.7731 26.2669 53.7801 26.264 53.7873 26.2642L56.8809 26.3532C56.8899 26.3534 56.8981 26.3586 56.9023 26.3666C56.9064 26.3747 56.9059 26.3843 56.9009 26.3918L54.2817 30.3159C54.2759 30.3246 54.2653 30.3287 54.2552 30.3263C54.2451 30.3239 54.2375 30.3154 54.2363 30.305L53.7619 26.2919C53.761 26.2848 53.7634 26.2776 53.7682 26.2722ZM53.8147 26.3147L54.2778 30.2322L56.8346 26.4016L53.8147 26.3147Z" fill="#CD6116"/>
<path d="M56.1528 21.8721L50.5977 22.1192L51.1118 24.9756L51.9324 23.2555L53.9091 24.1551L56.1528 21.8721Z" fill="#CD6116"/>
<path fill-rule="evenodd" clip-rule="evenodd" d="M56.1652 21.8624C56.1694 21.8717 56.1674 21.8827 56.1603 21.8899L53.9165 24.173C53.9092 24.1804 53.898 24.1825 53.8885 24.1782L51.934 23.2887L51.124 24.9868C51.1194 24.9965 51.1089 25.0022 51.0982 25.0007C51.0875 24.9993 51.079 24.9911 51.0771 24.9805L50.5629 22.1241C50.5616 22.117 50.5635 22.1098 50.5679 22.1042C50.5724 22.0985 50.5791 22.0952 50.5863 22.0948L56.1414 21.8477C56.1516 21.8472 56.1611 21.8531 56.1652 21.8624ZM50.6169 22.1432L51.1124 24.8957L51.8996 23.2453C51.9055 23.233 51.92 23.2277 51.9324 23.2333L53.8932 24.1257L56.0805 21.9002L50.6169 22.1432Z" fill="#CD6116"/>
<path d="M44.2654 24.1551L46.2421 23.2555L47.0527 24.9756L47.5763 22.1192L42.0117 21.8721L44.2654 24.1551Z" fill="#CD6116"/>
<path fill-rule="evenodd" clip-rule="evenodd" d="M41.9787 21.8624C41.9829 21.8531 41.9923 21.8472 42.0025 21.8477L47.5671 22.0948C47.5743 22.0952 47.581 22.0986 47.5855 22.1042C47.59 22.1098 47.5918 22.1171 47.5905 22.1242L47.0669 24.9806C47.0649 24.9912 47.0563 24.9993 47.0456 25.0007C47.0349 25.0021 47.0245 24.9964 47.0199 24.9867L46.2198 23.2888L44.2654 24.1782C44.2559 24.1825 44.2448 24.1804 44.2374 24.173L41.9837 21.89C41.9765 21.8827 41.9746 21.8718 41.9787 21.8624ZM42.0637 21.9002L44.2606 24.1257L46.2215 23.2333C46.2339 23.2277 46.2485 23.2331 46.2543 23.2454L47.0319 24.8955L47.5364 22.1432L42.0637 21.9002Z" fill="#CD6116"/>
<path d="M42.0117 21.8721L44.3445 26.4182L44.2654 24.1551L42.0117 21.8721Z" fill="#E4751F"/>
<path fill-rule="evenodd" clip-rule="evenodd" d="M41.9869 21.8524C41.9968 21.8452 42.0105 21.8463 42.0191 21.8551L44.2728 24.1381C44.2772 24.1425 44.2798 24.1485 44.28 24.1547L44.359 26.4178C44.3594 26.4295 44.3517 26.4398 44.3405 26.4428C44.3292 26.4457 44.3174 26.4404 44.3121 26.4301L41.9793 21.8839C41.9737 21.873 41.9769 21.8596 41.9869 21.8524ZM42.0974 22.0052L44.3055 26.3082L44.2306 24.1661L42.0974 22.0052Z" fill="#E4751F"/>
<path d="M53.888 24.1551L53.7891 26.4182L56.1318 21.8721L53.888 24.1551Z" fill="#E4751F"/>
<path fill-rule="evenodd" clip-rule="evenodd" d="M56.1712 21.8524C56.1812 21.8596 56.1844 21.873 56.1787 21.8839L53.836 26.4301C53.8307 26.4405 53.8188 26.4457 53.8075 26.4427C53.7963 26.4397 53.7886 26.4293 53.7891 26.4176L53.888 24.1545C53.8883 24.1483 53.8908 24.1425 53.8952 24.1381L56.1389 21.8551C56.1475 21.8463 56.1612 21.8452 56.1712 21.8524ZM53.9373 24.1662L53.8437 26.3066L56.0594 22.0069L53.9373 24.1662Z" fill="#E4751F"/>
<path d="M47.5666 22.1187L47.043 24.9751L47.6954 28.3452L47.8436 23.9074L47.5666 22.1187Z" fill="#E4751F"/>
<path fill-rule="evenodd" clip-rule="evenodd" d="M47.584 22.0938C47.5961 22.0939 47.6064 22.1028 47.6082 22.1148L47.8852 23.9035C47.8855 23.9051 47.8856 23.9066 47.8855 23.9082L47.7373 28.3459C47.7369 28.3586 47.727 28.3689 47.7144 28.3699C47.7018 28.3709 47.6905 28.3623 47.688 28.3498L47.0356 24.9797C47.035 24.9767 47.035 24.9736 47.0356 24.9705L47.5592 22.1141C47.5614 22.1022 47.5719 22.0936 47.584 22.0938ZM47.0853 24.9749L47.695 28.1239L47.8357 23.9088L47.5816 22.2678L47.0853 24.9749Z" fill="#E4751F"/>
<path d="M50.583 22.1187L50.3164 23.8974L50.4348 28.3452L51.0971 24.9751L50.583 22.1187Z" fill="#E4751F"/>
<path fill-rule="evenodd" clip-rule="evenodd" d="M50.5801 22.0938C50.5923 22.0936 50.6028 22.1022 50.6049 22.1142L51.1191 24.9706C51.1197 24.9737 51.1197 24.9768 51.1191 24.9798L50.4567 28.3499C50.4542 28.3623 50.4428 28.371 50.4302 28.3699C50.4176 28.3688 50.4078 28.3584 50.4074 28.3458L50.2891 23.8981C50.289 23.8966 50.2891 23.8952 50.2893 23.8937L50.5559 22.1149C50.5577 22.1029 50.5679 22.0939 50.5801 22.0938ZM50.5827 22.2714L50.3388 23.8989L50.4512 28.1201L51.0694 24.9748L50.5827 22.2714Z" fill="#E4751F"/>
<path d="M51.096 24.9758L50.4336 28.3459L50.908 28.6721L53.7942 26.4184L53.8932 24.1553L51.096 24.9758Z" fill="#F6851B"/>
<path fill-rule="evenodd" clip-rule="evenodd" d="M53.9178 24.1362C53.9241 24.1411 53.9276 24.1488 53.9273 24.1568L53.8283 26.42C53.828 26.4272 53.8245 26.434 53.8188 26.4385L50.9325 28.6922C50.924 28.6988 50.9121 28.6992 50.9032 28.693L50.4287 28.3668C50.4206 28.3612 50.4165 28.3513 50.4184 28.3415L51.0808 24.9714C51.0826 24.9623 51.0893 24.955 51.0982 24.9524L53.8954 24.1319C53.9031 24.1296 53.9115 24.1312 53.9178 24.1362ZM51.1267 24.9959L50.4704 28.3351L50.9163 28.6417L53.7791 26.4063L53.8761 24.1894L51.1267 24.9959Z" fill="#F6851B"/>
<path d="M44.2734 24.1553L44.3525 26.4184L47.2387 28.6721L47.7132 28.3459L47.0607 24.9758L44.2734 24.1553Z" fill="#F6851B"/>
<path fill-rule="evenodd" clip-rule="evenodd" d="M44.2557 24.1361C44.262 24.1312 44.2703 24.1296 44.278 24.1319L47.0653 24.9524C47.0742 24.955 47.0809 24.9624 47.0827 24.9715L47.7351 28.3416C47.737 28.3513 47.7329 28.3612 47.7248 28.3668L47.2504 28.693C47.2414 28.6992 47.2295 28.6988 47.221 28.6922L44.3347 26.4385C44.3289 26.4339 44.3254 26.4271 44.3252 26.4197L44.2461 24.1566C44.2458 24.1486 44.2494 24.141 44.2557 24.1361ZM44.297 24.1893L44.3745 26.4064L47.2372 28.6417L47.6832 28.3351L47.0367 24.9958L44.297 24.1893Z" fill="#F6851B"/>
<path d="M51.155 31.7762L51.1848 30.8572L50.9376 30.6394H47.2115L46.9842 30.8572L47.0041 31.7762L43.8906 30.3037L44.9777 31.1929L47.1817 32.725H50.9675L53.1814 31.1929L54.2685 30.3037L51.155 31.7762Z" fill="#C0AD9E"/>
<path fill-rule="evenodd" clip-rule="evenodd" d="M43.8671 30.2889C43.8738 30.2783 43.8874 30.2744 43.8988 30.2797L46.9759 31.735L46.9569 30.8562C46.9567 30.8493 46.9595 30.8426 46.9646 30.8377L47.1918 30.6199C47.1964 30.6155 47.2026 30.613 47.209 30.613H50.9352C50.9412 30.613 50.9471 30.6152 50.9516 30.6192L51.1988 30.837C51.2043 30.8419 51.2074 30.8491 51.2072 30.8565L51.1787 31.7348L54.2554 30.2797C54.2667 30.2744 54.2803 30.2783 54.287 30.2889C54.2937 30.2995 54.2915 30.3135 54.2817 30.3215L53.1947 31.2106C53.1945 31.2107 53.1943 31.2109 53.1941 31.211C53.1938 31.2113 53.1934 31.2116 53.1931 31.2118L50.9792 32.7439C50.975 32.7468 50.9701 32.7484 50.965 32.7484H47.1792C47.1741 32.7484 47.1692 32.7468 47.165 32.7439L44.961 31.2118C44.9605 31.2114 44.96 31.211 44.9595 31.2106L43.8724 30.3215C43.8627 30.3135 43.8604 30.2995 43.8671 30.2889ZM54.0932 30.4115L51.1631 31.7971C51.1553 31.8009 51.1461 31.8002 51.1388 31.7955C51.1316 31.7907 51.1274 31.7825 51.1276 31.7739L51.1571 30.8666L50.9258 30.6627H47.219L47.0069 30.8661L47.0265 31.7741C47.0267 31.7827 47.0224 31.7908 47.0152 31.7955C47.0079 31.8002 46.9988 31.8008 46.991 31.7971L44.061 30.4115L44.9902 31.1715L47.187 32.6986H50.9572L53.164 31.1715L54.0932 30.4115Z" fill="#C0AD9E"/>
<path d="M50.914 28.6719L50.4396 28.3457H47.702L47.2276 28.6719L46.9805 30.8565L47.2077 30.6387H50.9339L51.181 30.8565L50.914 28.6719Z" fill="#161616"/>
<path fill-rule="evenodd" clip-rule="evenodd" d="M47.705 28.3257C47.7091 28.3228 47.7141 28.3213 47.7191 28.3213H50.4566C50.4617 28.3213 50.4666 28.3228 50.4707 28.3257L50.9451 28.6519C50.951 28.6559 50.9549 28.6623 50.9557 28.6694L51.2228 30.8539C51.224 30.8642 51.2188 30.8741 51.2097 30.8789C51.2005 30.8838 51.1894 30.8824 51.1816 30.8756L50.9415 30.664H47.2348L47.0147 30.8749C47.0072 30.8821 46.9959 30.8839 46.9865 30.8792C46.9771 30.8746 46.9716 30.8646 46.9728 30.8541L47.22 28.6696C47.2208 28.6624 47.2246 28.656 47.2306 28.6519L47.705 28.3257ZM47.7268 28.371L47.2681 28.6864L47.03 30.7914L47.2076 30.6212C47.2122 30.6167 47.2184 30.6143 47.2248 30.6143H50.9509C50.957 30.6143 50.9628 30.6165 50.9674 30.6205L51.1655 30.7951L50.9077 28.6865L50.4489 28.371H47.7268Z" fill="#161616"/>
<path d="M60.8418 17.1369L61.6817 13.1044L60.4266 9.3584L50.918 16.4154L54.575 19.509L59.7443 21.0212L60.891 19.687L60.3967 19.3314L61.1874 18.6099L60.5747 18.1355L61.3654 17.5323L60.8418 17.1369Z" fill="#763D16"/>
<path fill-rule="evenodd" clip-rule="evenodd" d="M60.4315 9.33464C60.4391 9.33703 60.4451 9.34291 60.4476 9.35046L61.7028 13.0965C61.7042 13.1007 61.7045 13.1052 61.7036 13.1095L60.8669 17.1265L61.3779 17.5124C61.3841 17.5171 61.3878 17.5244 61.3878 17.5322C61.3878 17.5399 61.3842 17.5473 61.378 17.552L60.6131 18.1356L61.2001 18.5902C61.2059 18.5947 61.2095 18.6015 61.2098 18.6088C61.2101 18.6162 61.2071 18.6233 61.2017 18.6282L60.4336 19.3291L60.9031 19.6668C60.9087 19.6709 60.9124 19.6771 60.9132 19.684C60.9141 19.6909 60.9119 19.6979 60.9074 19.7032L59.7607 21.0374C59.7543 21.0448 59.7442 21.0478 59.7348 21.045L54.5655 19.5328C54.5622 19.5318 54.5591 19.5302 54.5565 19.5279L50.8994 16.4343C50.8936 16.4294 50.8904 16.4221 50.8906 16.4145C50.8909 16.407 50.8946 16.3999 50.9007 16.3954L60.4093 9.33839C60.4157 9.33365 60.4239 9.33225 60.4315 9.33464ZM50.9555 16.4166L54.5846 19.4866L59.7334 20.9928L60.852 19.6913L60.3797 19.3516C60.3736 19.3472 60.3698 19.3403 60.3694 19.3329C60.369 19.3254 60.3719 19.3181 60.3775 19.313L61.1463 18.6114L60.557 18.1551C60.5509 18.1504 60.5474 18.1431 60.5474 18.1354C60.5474 18.1276 60.551 18.1204 60.5572 18.1157L61.3218 17.5323L60.8243 17.1567C60.8166 17.1509 60.813 17.1412 60.815 17.1318L61.6535 13.1059L60.4114 9.39874L50.9555 16.4166Z" fill="#763D16"/>
<path d="M36.4805 13.1044L37.3204 17.1369L36.7868 17.5323L37.5775 18.1355L36.9748 18.6099L37.7655 19.3314L37.2712 19.687L38.4079 21.0212L43.5772 19.509L47.2343 16.4154L37.7257 9.3584L36.4805 13.1044Z" fill="#763D16"/>
<path fill-rule="evenodd" clip-rule="evenodd" d="M37.7157 9.33465C37.7233 9.33225 37.7316 9.33364 37.738 9.33839L47.2466 16.3954C47.2527 16.3999 47.2564 16.407 47.2566 16.4145C47.2569 16.4221 47.2536 16.4294 47.2478 16.4343L43.5908 19.5279C43.5881 19.5302 43.5851 19.5318 43.5817 19.5328L38.4124 21.045C38.403 21.0478 38.3929 21.0448 38.3865 21.0373L37.2497 19.7031C37.2452 19.6978 37.2432 19.6909 37.244 19.684C37.2448 19.6771 37.2485 19.6708 37.2542 19.6668L37.7236 19.3291L36.9555 18.6282C36.9501 18.6233 36.9472 18.6162 36.9474 18.6089C36.9477 18.6016 36.9512 18.5948 36.9569 18.5903L37.5344 18.1357L36.7692 17.552C36.763 17.5473 36.7594 17.5399 36.7595 17.5321C36.7595 17.5242 36.7632 17.5169 36.7695 17.5123L37.2903 17.1264L36.4536 13.1095C36.4528 13.1052 36.453 13.1007 36.4544 13.0966L37.6996 9.35052C37.7021 9.34295 37.7081 9.33705 37.7157 9.33465ZM37.736 9.3988L36.5037 13.1059L37.3422 17.1318C37.3442 17.1413 37.3405 17.1511 37.3327 17.1569L36.8257 17.5325L37.5901 18.1157C37.5962 18.1203 37.5998 18.1276 37.5999 18.1353C37.5999 18.1429 37.5964 18.1502 37.5904 18.155L37.0107 18.6113L37.7797 19.313C37.7853 19.3181 37.7882 19.3254 37.7878 19.3329C37.7874 19.3403 37.7836 19.3472 37.7775 19.3516L37.3051 19.6914L38.4139 20.9928L43.5627 19.4866L47.1918 16.4166L37.736 9.3988Z" fill="#763D16"/>
<path d="M59.7291 21.022L54.5599 19.5098L56.1318 21.8724L53.7891 26.4185L56.8727 26.3793H61.4691L59.7291 21.022Z" fill="#F6851B"/>
<path fill-rule="evenodd" clip-rule="evenodd" d="M54.5647 19.495C54.5709 19.4866 54.5817 19.4829 54.5917 19.4859L59.761 20.9981C59.7689 21.0004 59.7751 21.0065 59.7776 21.0143L61.5176 26.3715C61.5201 26.3791 61.5188 26.3874 61.5141 26.3938C61.5094 26.4003 61.502 26.4041 61.494 26.4041H56.8976L53.8142 26.4434C53.8055 26.4435 53.7974 26.439 53.7928 26.4316C53.7882 26.4242 53.7878 26.4149 53.7918 26.4071L56.1278 21.8739L54.564 19.5235C54.5582 19.5148 54.5585 19.5034 54.5647 19.495ZM54.6432 19.5527L56.1773 21.8586C56.1823 21.8661 56.1829 21.8757 56.1787 21.8837L53.855 26.3931L56.8973 26.3544L56.8976 26.3544L61.4598 26.3544L59.7344 21.0421L54.6432 19.5527Z" fill="#F6851B"/>
<path d="M43.5808 19.5098L38.4115 21.022L36.6914 26.3793H41.2779L44.3516 26.4185L42.0188 21.8724L43.5808 19.5098Z" fill="#F6851B"/>
<path fill-rule="evenodd" clip-rule="evenodd" d="M43.5866 19.495C43.5928 19.5034 43.5931 19.5147 43.5873 19.5234L42.0334 21.8739L44.3595 26.4072C44.3635 26.4149 44.3631 26.4242 44.3585 26.4316C44.3539 26.439 44.3458 26.4435 44.3371 26.4434L41.2637 26.4041H36.6772C36.6693 26.4041 36.6618 26.4003 36.6571 26.3939C36.6524 26.3875 36.6511 26.3792 36.6535 26.3716L38.3736 21.0144C38.3762 21.0065 38.3824 21.0004 38.3903 20.9981L43.5596 19.4859C43.5696 19.4829 43.5804 19.4866 43.5866 19.495ZM38.417 21.0421L36.7113 26.3544H41.264L44.2964 26.3931L41.9825 21.8837C41.9784 21.8757 41.9789 21.8661 41.9839 21.8586L43.5084 19.5527L38.417 21.0421Z" fill="#F6851B"/>
<path d="M50.5931 22.1182L50.9193 16.4149L52.4221 12.3525H45.75L47.2329 16.4149L47.5785 22.1182L47.6974 23.9169L47.7073 28.3447H50.4449L50.4648 23.9169L50.5931 22.1182Z" fill="#F6851B"/>
<path fill-rule="evenodd" clip-rule="evenodd" d="M45.7271 12.3382C45.7318 12.3316 45.7394 12.3276 45.7475 12.3276H52.4196C52.4277 12.3276 52.4353 12.3316 52.44 12.3383C52.4446 12.345 52.4457 12.3535 52.4429 12.3611L50.9414 16.42L50.6154 22.1196L50.6154 22.12L50.4871 23.9178L50.4673 28.3448C50.4672 28.3585 50.4561 28.3696 50.4424 28.3696H47.7048C47.6911 28.3696 47.68 28.3585 47.68 28.3447L47.67 23.9177L47.5512 22.1198L47.5512 22.1197L47.2058 16.4199L45.7242 12.361C45.7214 12.3534 45.7225 12.3449 45.7271 12.3382ZM45.7831 12.3774L47.2538 16.4063C47.2546 16.4086 47.2551 16.4109 47.2552 16.4133L47.6008 22.1165L47.6009 22.1167L47.7197 23.9152C47.7197 23.9158 47.7198 23.9163 47.7198 23.9168L47.7296 28.3198H50.4176L50.4374 23.9168C50.4374 23.9162 50.4374 23.9156 50.4375 23.9151L50.5658 22.1168L50.5658 22.1164L50.892 16.4134C50.8921 16.4109 50.8926 16.4085 50.8935 16.4062L52.3839 12.3774H45.7831Z" fill="#F6851B"/>
<path d="M29.2942 16.9084L28.5722 14.9474L29.0743 13.8216C29.1059 13.7506 29.1152 13.6717 29.1012 13.5953C29.0871 13.5189 29.0503 13.4485 28.9956 13.3933L27.6302 12.0133C27.3372 11.7159 26.9656 11.5078 26.5589 11.4134C26.1522 11.319 25.727 11.3421 25.3328 11.4799L24.9505 11.6129L22.8648 9.35319L19.3268 9.3335H19.3038L15.7428 9.36139L13.6587 11.6391L13.2879 11.5078C12.8912 11.3683 12.4629 11.3449 12.0534 11.4402C11.6438 11.5355 11.27 11.7457 10.9757 12.0461L9.58576 13.4524C9.54214 13.4964 9.51284 13.5525 9.50171 13.6134C9.49058 13.6743 9.49814 13.7372 9.5234 13.7937L10.0469 14.9621L9.32812 16.9215L9.79253 18.6889L11.9111 26.7429C12.1551 27.6707 12.7166 28.4836 13.4979 29.0403C13.4979 29.0403 16.0694 30.8536 18.6064 32.5012C18.807 32.6614 19.0561 32.7486 19.3128 32.7486C19.5695 32.7486 19.8186 32.6614 20.0193 32.5012C22.8697 30.6337 25.1244 29.0338 25.1244 29.0338C25.9051 28.4768 26.466 27.6639 26.7096 26.7363L28.8167 18.679L29.2942 16.9084Z" fill="url(#paint2_linear_4268_19460)"/>
<path d="M19.9094 23.8482C19.7743 23.7878 19.635 23.7373 19.4926 23.6973H19.2415C19.0991 23.7373 18.9597 23.7878 18.8247 23.8482L18.1929 24.1108C17.9927 24.1945 17.6711 24.3438 17.4791 24.439L16.3172 25.0445C16.2752 25.0582 16.2381 25.0841 16.2109 25.119C16.1837 25.1539 16.1676 25.1961 16.1646 25.2402C16.1616 25.2844 16.1719 25.3284 16.1941 25.3666C16.2163 25.4049 16.2495 25.4356 16.2893 25.4548L17.2986 26.167C17.4758 26.2917 17.7548 26.5116 17.9189 26.6593L18.2027 26.9038C18.3668 27.0449 18.6343 27.2796 18.7968 27.424L19.0659 27.6619C19.1491 27.7312 19.2539 27.7691 19.3621 27.7691C19.4703 27.7691 19.5752 27.7312 19.6583 27.6619L19.9406 27.4158L20.5346 26.8972L20.8201 26.6478C20.9842 26.505 21.2616 26.2851 21.4388 26.1555L22.448 25.4334C22.488 25.4143 22.5212 25.3835 22.5433 25.3451C22.5654 25.3068 22.5755 25.2626 22.5721 25.2185C22.5687 25.1743 22.5521 25.1322 22.5244 25.0977C22.4967 25.0631 22.4592 25.0377 22.4168 25.0248L21.2567 24.4357C21.063 24.3373 20.7414 24.1896 20.5395 24.1075L19.9094 23.8482Z" fill="white"/>
<path d="M27.0506 17.3471L27.0834 17.242C27.0854 17.1015 27.0766 16.9611 27.0572 16.8219C26.9595 16.5734 26.834 16.3367 26.683 16.1163L26.0266 15.153C25.9052 14.9725 25.6984 14.687 25.5589 14.518L24.6793 13.4169C24.5991 13.3095 24.512 13.2076 24.4184 13.1116H24.4004C24.4004 13.1116 24.2232 13.1428 24.0098 13.1838L22.6658 13.4431L22.0767 13.5563C21.8811 13.5655 21.6856 13.5371 21.5007 13.4727L20.439 13.1297C20.2322 13.0624 19.8909 12.9656 19.6792 12.9196C19.4561 12.8959 19.2311 12.8959 19.008 12.9196C18.7964 12.9689 18.455 13.064 18.2483 13.1313L17.1865 13.4759C17.0016 13.5404 16.8061 13.5688 16.6105 13.5596L16.0214 13.448L14.6758 13.1904C14.4625 13.1494 14.2869 13.1166 14.2852 13.1182H14.2672C14.1736 13.2142 14.0865 13.3161 14.0063 13.4234L13.1283 14.5245C12.9938 14.6886 12.7821 14.9807 12.6606 15.1596L12.0042 16.1229C11.8909 16.289 11.7873 16.4616 11.6941 16.6398C11.6379 16.8385 11.6081 17.0438 11.6055 17.2502L11.6383 17.3553C11.6541 17.4227 11.6744 17.4891 11.699 17.5538C11.8352 17.7179 12.0682 17.9903 12.2176 18.1495L14.515 20.5913C14.5912 20.6804 14.6423 20.7882 14.6628 20.9036C14.6833 21.0191 14.6724 21.1379 14.6315 21.2477L14.2557 22.1388C14.1702 22.3749 14.1639 22.6323 14.2376 22.8723L14.3131 23.0791C14.4365 23.4149 14.6479 23.7114 14.9252 23.9373L15.2862 24.2311C15.38 24.2987 15.4895 24.3414 15.6043 24.3552C15.7191 24.369 15.8355 24.3534 15.9426 24.3099L17.2259 23.6978C17.4615 23.5798 17.6819 23.4338 17.8823 23.2629L18.9096 22.3357C18.9505 22.2988 18.9836 22.254 19.0069 22.204C19.0302 22.1541 19.0432 22.0999 19.0452 22.0449C19.0472 21.9898 19.0381 21.9348 19.0185 21.8833C18.9988 21.8318 18.9691 21.7848 18.9309 21.745L16.6122 20.1827C16.5244 20.1204 16.4618 20.0287 16.436 19.9242C16.4101 19.8197 16.4225 19.7094 16.471 19.6133L17.3703 17.9231C17.4215 17.8196 17.4517 17.7071 17.4593 17.5919C17.4669 17.4767 17.4517 17.3612 17.4146 17.2519C17.303 17.0434 17.1227 16.8799 16.9043 16.7891L14.085 15.7241C13.8815 15.647 13.893 15.56 14.108 15.5469L15.7638 15.3828C16.0234 15.3663 16.2841 15.3895 16.5367 15.4517L17.9775 15.8538C18.0798 15.8846 18.1674 15.9515 18.2242 16.042C18.2809 16.1325 18.3029 16.2406 18.286 16.3461L17.7199 19.4377C17.682 19.6089 17.6726 19.7853 17.692 19.9595C17.7149 20.0334 17.9086 20.1236 18.1203 20.1762L18.9982 20.3632C19.2531 20.4101 19.5145 20.4101 19.7695 20.3632L20.5588 20.1844C20.7705 20.1368 20.9625 20.0367 20.9871 19.9628C21.006 19.7884 20.996 19.6121 20.9576 19.441L20.3881 16.3493C20.3713 16.2438 20.3932 16.1358 20.45 16.0453C20.5067 15.9548 20.5943 15.8879 20.6966 15.857L22.1374 15.4533C22.3901 15.3911 22.6507 15.3679 22.9103 15.3844L24.5661 15.5387C24.7827 15.5584 24.7926 15.6388 24.5907 15.7159L21.7731 16.7842C21.5547 16.875 21.3745 17.0385 21.2628 17.247C21.188 17.4677 21.204 17.7091 21.3071 17.9181L22.208 19.6084C22.2565 19.7045 22.269 19.8148 22.2431 19.9193C22.2172 20.0238 22.1547 20.1155 22.0669 20.1778L19.7498 21.7433C19.7116 21.7831 19.6819 21.8302 19.6622 21.8817C19.6426 21.9332 19.6335 21.9881 19.6355 22.0432C19.6375 22.0983 19.6505 22.1524 19.6738 22.2024C19.6971 22.2524 19.7302 22.2971 19.7711 22.3341L20.8 23.2612C21.0005 23.4316 21.2209 23.5771 21.4564 23.6945L22.7397 24.3049C22.8469 24.3482 22.9635 24.3636 23.0783 24.3495C23.1931 24.3354 23.3024 24.2924 23.3961 24.2245L23.7571 23.9291C24.0347 23.7028 24.2462 23.4057 24.3692 23.0693L24.4447 22.8625C24.5184 22.6225 24.5121 22.365 24.4266 22.129L24.0492 21.2379C24.0082 21.128 23.9974 21.0092 24.0179 20.8938C24.0384 20.7784 24.0894 20.6705 24.1657 20.5815L26.4631 18.1364C26.6125 17.9723 26.8438 17.7097 26.98 17.5407C27.0078 17.4778 27.0314 17.4131 27.0506 17.3471Z" fill="white"/>
<defs>
<linearGradient id="paint0_linear_4268_19460" x1="19.588" y1="38.9497" x2="19.588" y2="62.3757" gradientUnits="userSpaceOnUse">
<stop stop-color="#534BB1"/>
<stop offset="1" stop-color="#551BF9"/>
</linearGradient>
<linearGradient id="paint1_linear_4268_19460" x1="19.8458" y1="43.1877" x2="19.8458" y2="58.6387" gradientUnits="userSpaceOnUse">
<stop stop-color="white"/>
<stop offset="1" stop-color="white" stop-opacity="0.82"/>
</linearGradient>
<linearGradient id="paint2_linear_4268_19460" x1="9.33469" y1="21.0421" x2="29.2877" y2="21.0421" gradientUnits="userSpaceOnUse">
<stop stop-color="#F1562B"/>
<stop offset="0.3" stop-color="#F1542B"/>
<stop offset="0.41" stop-color="#F04D2A"/>
<stop offset="0.49" stop-color="#EF4229"/>
<stop offset="0.5" stop-color="#EF4029"/>
<stop offset="0.56" stop-color="#E83E28"/>
<stop offset="0.67" stop-color="#E13C26"/>
<stop offset="1" stop-color="#DF3C26"/>
</linearGradient>
</defs>
</svg>
