<svg width="70" height="65" viewBox="0 0 70 65" fill="none" xmlns="http://www.w3.org/2000/svg">
<path d="M66.4571 0.0688171L39.1953 20.3156L44.2377 8.3699L66.4571 0.0688171Z" fill="#E2761B"/>
<path fill-rule="evenodd" clip-rule="evenodd" d="M66.5006 0.0360005C66.517 0.0661604 66.5087 0.103795 66.4812 0.124265L39.2194 20.3711C39.1944 20.3896 39.1602 20.3891 39.1357 20.3699C39.1113 20.3507 39.1027 20.3176 39.1148 20.2889L44.1572 8.34321C44.1646 8.32574 44.1788 8.31208 44.1966 8.30545L66.416 0.00436888C66.4481 -0.00764654 66.4842 0.00584067 66.5006 0.0360005ZM44.2727 8.42418L39.3401 20.1097L66.0081 0.303885L44.2727 8.42418Z" fill="#E2761B"/>
<path d="M3.51172 0.0688171L30.5543 20.5072L25.7587 8.3699L3.51172 0.0688171Z" fill="#E4761B"/>
<path fill-rule="evenodd" clip-rule="evenodd" d="M3.46945 0.0357588C3.48592 0.00576563 3.5219 -0.00760322 3.55396 0.00435889L25.8009 8.30544C25.8192 8.31226 25.8337 8.32653 25.8409 8.34469L30.6366 20.482C30.6479 20.5107 30.6388 20.5435 30.6142 20.5622C30.5896 20.5809 30.5556 20.581 30.5309 20.5623L3.48831 0.123918C3.46101 0.103287 3.45298 0.065752 3.46945 0.0357588ZM3.94789 0.298477L30.4181 20.3043L25.724 8.42387L3.94789 0.298477Z" fill="#E4761B"/>
<path d="M56.651 47.0008L49.3906 58.1249L64.9259 62.3982L69.3921 47.2475L56.651 47.0008Z" fill="#E4761B"/>
<path fill-rule="evenodd" clip-rule="evenodd" d="M56.6036 46.9637C56.6166 46.9438 56.6389 46.932 56.6626 46.9324L69.4037 47.1792C69.4252 47.1796 69.4453 47.19 69.458 47.2073C69.4707 47.2247 69.4746 47.2469 69.4685 47.2676L65.0023 62.4182C64.9917 62.4542 64.9541 62.4751 64.9179 62.4652L49.3827 58.1919C49.3615 58.1861 49.3443 58.1705 49.3365 58.1499C49.3287 58.1293 49.3312 58.1063 49.3432 58.0878L56.6036 46.9637ZM56.6981 47.071L49.5103 58.0841L64.8892 62.3143L69.3107 47.3152L56.6981 47.071Z" fill="#E4761B"/>
<path d="M0.652344 47.2484L5.09098 62.3991L20.6262 58.1258L13.3659 47.0017L0.652344 47.2484Z" fill="#E4761B"/>
<path fill-rule="evenodd" clip-rule="evenodd" d="M13.3553 46.9324C13.3791 46.932 13.4014 46.9438 13.4144 46.9637L20.6747 58.0878C20.6868 58.1063 20.6893 58.1293 20.6815 58.1499C20.6737 58.1705 20.6565 58.1861 20.6353 58.1919L5.10006 62.4652C5.06379 62.4751 5.02621 62.4542 5.01564 62.4181L0.576999 47.2674C0.570962 47.2468 0.574874 47.2246 0.587581 47.2073C0.600287 47.19 0.620336 47.1796 0.641805 47.1792L13.3553 46.9324ZM0.734638 47.3152L5.12886 62.3143L20.5077 58.0841L13.3198 47.071L0.734638 47.3152Z" fill="#E4761B"/>
<path d="M19.7438 28.2063L15.4141 34.7553L30.839 35.4404L30.2918 18.8645L19.7438 28.2063Z" fill="#E4761B"/>
<path fill-rule="evenodd" clip-rule="evenodd" d="M30.3293 18.8008C30.3539 18.8114 30.3701 18.8351 30.371 18.8618L30.9182 35.4378C30.9189 35.457 30.9115 35.4756 30.8978 35.4891C30.8841 35.5026 30.8655 35.5098 30.8463 35.5089L15.4213 34.8238C15.3965 34.8227 15.3742 34.8084 15.363 34.7863C15.3517 34.7642 15.3532 34.7377 15.3669 34.717L19.6966 28.1679C19.7 28.1629 19.7039 28.1583 19.7084 28.1543L30.2564 18.8125C30.2764 18.7948 30.3048 18.7902 30.3293 18.8008ZM19.8066 28.2515L15.549 34.6915L30.778 35.3679L30.2381 19.0129L19.8066 28.2515Z" fill="#E4761B"/>
<path d="M50.2368 28.2057L39.5523 18.6723L39.1953 35.4398L54.5941 34.7547L50.2368 28.2057Z" fill="#E4761B"/>
<path fill-rule="evenodd" clip-rule="evenodd" d="M39.5078 18.6092C39.5325 18.5984 39.5611 18.603 39.5812 18.6209L50.2656 28.1544C50.27 28.1583 50.2739 28.1627 50.2771 28.1676L54.6344 34.7167C54.6482 34.7374 54.6498 34.7639 54.6385 34.786C54.6273 34.8082 54.605 34.8226 54.5801 34.8237L39.1814 35.5088C39.1623 35.5097 39.1438 35.5026 39.1301 35.4892C39.1165 35.4759 39.109 35.4575 39.1094 35.4385L39.4664 18.6709C39.467 18.644 39.4831 18.6199 39.5078 18.6092ZM39.601 18.8234L39.2488 35.3678L54.4521 34.6914L50.1673 28.2513L39.601 18.8234Z" fill="#E4761B"/>
<path d="M20.6328 58.1256L29.8933 53.6043L21.8927 47.3571L20.6328 58.1256Z" fill="#E4761B"/>
<path fill-rule="evenodd" clip-rule="evenodd" d="M21.8374 47.2931C21.8604 47.2835 21.8868 47.2871 21.9064 47.3024L29.907 53.5496C29.9257 53.5642 29.9356 53.5875 29.9331 53.6111C29.9306 53.6347 29.9162 53.6554 29.8948 53.6658L20.6343 58.1872C20.6117 58.1983 20.5848 58.1961 20.5642 58.1815C20.5437 58.1669 20.5327 58.1423 20.5356 58.1172L21.7955 47.3487C21.7984 47.324 21.8144 47.3027 21.8374 47.2931ZM21.9182 47.4865L20.6872 58.008L29.7352 53.5904L21.9182 47.4865Z" fill="#E4761B"/>
<path d="M40.1094 53.6043L49.3974 58.1256L48.11 47.3571L40.1094 53.6043Z" fill="#E4761B"/>
<path fill-rule="evenodd" clip-rule="evenodd" d="M48.1194 47.2931C48.1424 47.3027 48.1584 47.3239 48.1614 47.3486L49.4489 58.1171C49.4518 58.1421 49.4409 58.1668 49.4204 58.1814C49.3998 58.196 49.3729 58.1983 49.3503 58.1872L40.0622 53.6659C40.0408 53.6555 40.0263 53.6348 40.0238 53.6111C40.0213 53.5875 40.0312 53.5642 40.0499 53.5496L48.0505 47.3024C48.0701 47.2871 48.0965 47.2835 48.1194 47.2931ZM40.2218 53.5903L49.297 58.008L48.039 47.4863L40.2218 53.5903Z" fill="#E4761B"/>
<path d="M49.3974 58.1264L40.1094 53.605L40.8496 59.6606L40.7669 62.208L49.3974 58.1264Z" fill="#D7C1B3"/>
<path fill-rule="evenodd" clip-rule="evenodd" d="M40.0523 53.5486C40.0729 53.5339 40.0998 53.5316 40.1225 53.5427L49.4106 58.064C49.4344 58.0756 49.4495 58.0999 49.4493 58.1264C49.4492 58.1529 49.4339 58.177 49.4099 58.1883L40.7794 62.2699C40.7576 62.2802 40.7321 62.2784 40.7121 62.2653C40.692 62.2521 40.6802 62.2294 40.681 62.2054L40.7635 59.6633L40.0239 53.613C40.0209 53.588 40.0318 53.5632 40.0523 53.5486ZM40.1762 53.7221L40.901 59.6519C40.9014 59.6554 40.9016 59.6589 40.9015 59.6625L40.8224 62.0971L49.2211 58.1251L40.1762 53.7221Z" fill="#D7C1B3"/>
<path d="M20.6328 58.1264L29.2633 62.208L29.2082 59.6606L29.8933 53.605L20.6328 58.1264Z" fill="#D7C1B3"/>
<path fill-rule="evenodd" clip-rule="evenodd" d="M29.9043 53.5484C29.9249 53.5629 29.9359 53.5874 29.9331 53.6124L29.2485 59.6634L29.3035 62.2061C29.304 62.23 29.2921 62.2525 29.2721 62.2655C29.2521 62.2785 29.2267 62.2801 29.2051 62.2699L20.5746 58.1883C20.5507 58.177 20.5353 58.1529 20.5352 58.1264C20.535 58.0999 20.55 58.0757 20.5738 58.0641L29.8343 53.5427C29.8569 53.5317 29.8838 53.5339 29.9043 53.5484ZM20.7632 58.125L29.1633 62.0977L29.1106 59.6617C29.1105 59.6586 29.1106 59.6556 29.111 59.6525L29.782 53.7217L20.7632 58.125Z" fill="#D7C1B3"/>
<path d="M29.3786 43.3577L21.6523 41.0832L27.1041 38.5896L29.3786 43.3577Z" fill="#233447"/>
<path fill-rule="evenodd" clip-rule="evenodd" d="M27.0858 38.527C27.12 38.5114 27.1605 38.5261 27.1767 38.56L29.4511 43.3281C29.4629 43.3527 29.459 43.3818 29.4414 43.4025C29.4237 43.4232 29.3956 43.4316 29.3695 43.4239L21.6432 41.1495C21.6156 41.1413 21.596 41.1169 21.5939 41.0883C21.5919 41.0596 21.6079 41.0326 21.634 41.0207L27.0858 38.527ZM21.8591 41.0693L29.2602 43.2481L27.0815 38.6806L21.8591 41.0693Z" fill="#233447"/>
<path d="M40.6094 43.3577L42.8838 38.5896L48.3632 41.0832L40.6094 43.3577Z" fill="#233447"/>
<path fill-rule="evenodd" clip-rule="evenodd" d="M42.7968 38.56C42.813 38.5261 42.8534 38.5114 42.8876 38.527L48.3669 41.0206C48.3931 41.0325 48.4092 41.0595 48.4071 41.0882C48.4051 41.117 48.3854 41.1414 48.3578 41.1495L40.6039 43.4239C40.5779 43.4316 40.5497 43.4232 40.5321 43.4025C40.5144 43.3818 40.5106 43.3527 40.5223 43.3281L42.7968 38.56ZM42.8921 38.6805L40.7132 43.2483L48.1412 41.0694L42.8921 38.6805Z" fill="#233447"/>
<path d="M20.6119 58.1249L21.927 47.0008L13.3516 47.2475L20.6119 58.1249Z" fill="#CD6116"/>
<path fill-rule="evenodd" clip-rule="evenodd" d="M21.9959 46.9548C22.0095 46.9696 22.0159 46.9895 22.0135 47.0094L20.6985 58.1336C20.6951 58.1623 20.6742 58.1858 20.6461 58.1925C20.618 58.1992 20.5888 58.1878 20.5727 58.1638L13.3124 47.2863C13.2985 47.2655 13.297 47.2387 13.3085 47.2164C13.32 47.1942 13.3427 47.1799 13.3677 47.1792L21.9431 46.9324C21.9631 46.9319 21.9824 46.94 21.9959 46.9548ZM13.4962 47.3134L20.5836 57.9317L21.8673 47.0725L13.4962 47.3134Z" fill="#CD6116"/>
<path d="M48.0703 47.0017L49.3854 58.1258L56.6457 47.2484L48.0703 47.0017Z" fill="#CD6116"/>
<path fill-rule="evenodd" clip-rule="evenodd" d="M48.0298 46.9548C48.0433 46.94 48.0626 46.9319 48.0826 46.9324L56.658 47.1792C56.6831 47.1799 56.7058 47.1942 56.7173 47.2164C56.7288 47.2387 56.7273 47.2655 56.7134 47.2863L49.453 58.1638C49.437 58.1878 49.4077 58.1992 49.3796 58.1925C49.3515 58.1858 49.3306 58.1623 49.3272 58.1336L48.0122 47.0094C48.0098 46.9895 48.0163 46.9696 48.0298 46.9548ZM48.1585 47.0725L49.4422 57.9317L56.5296 47.3134L48.1585 47.0725Z" fill="#CD6116"/>
<path d="M54.5941 34.7548L39.1953 35.4399L40.6206 43.3578L42.8951 38.5897L48.3745 41.0833L54.5941 34.7548Z" fill="#CD6116"/>
<path fill-rule="evenodd" clip-rule="evenodd" d="M54.64 34.7269C54.6515 34.7527 54.6461 34.783 54.6262 34.8032L48.4066 41.1317C48.3863 41.1524 48.3553 41.1582 48.3289 41.1462L42.9111 38.6806L40.6658 43.3876C40.6529 43.4146 40.6241 43.4302 40.5945 43.4262C40.5648 43.4222 40.5411 43.3995 40.5358 43.3701L39.1105 35.4522C39.1069 35.4327 39.112 35.4125 39.1245 35.397C39.1369 35.3815 39.1554 35.372 39.1752 35.3712L54.574 34.6861C54.6023 34.6848 54.6285 34.701 54.64 34.7269ZM39.2601 35.5054L40.6335 43.1351L42.8159 38.5601C42.8321 38.5262 42.8724 38.5115 42.9066 38.5271L48.3421 41.0007L54.4051 34.8316L39.2601 35.5054Z" fill="#CD6116"/>
<path d="M21.6612 41.0833L27.1406 38.5897L29.3875 43.3578L30.839 35.4399L15.4141 34.7548L21.6612 41.0833Z" fill="#CD6116"/>
<path fill-rule="evenodd" clip-rule="evenodd" d="M15.3614 34.7269C15.3729 34.701 15.3991 34.6848 15.4275 34.6861L30.8524 35.3712C30.8723 35.372 30.8909 35.3815 30.9033 35.3971C30.9157 35.4127 30.9207 35.4328 30.9171 35.4524L29.4656 43.3703C29.4602 43.3998 29.4364 43.4224 29.4067 43.4262C29.377 43.4301 29.3482 43.4143 29.3355 43.3873L27.1176 38.6807L21.7001 41.1462C21.6738 41.1581 21.6428 41.1524 21.6225 41.1318L15.3753 34.8033C15.3554 34.7832 15.3499 34.7528 15.3614 34.7269ZM15.5969 34.8316L21.6868 41.0008L27.1224 38.5271C27.1567 38.5114 27.1972 38.5263 27.2133 38.5604L29.3687 43.1344L30.7673 35.5054L15.5969 34.8316Z" fill="#CD6116"/>
<path d="M15.4141 34.7548L21.8804 47.3567L21.6612 41.0833L15.4141 34.7548Z" fill="#E4751F"/>
<path fill-rule="evenodd" clip-rule="evenodd" d="M15.384 34.6991C15.4115 34.6791 15.4495 34.6823 15.4734 34.7065L21.7206 41.035C21.7328 41.0473 21.7398 41.0637 21.7405 41.081L21.9596 47.3544C21.9608 47.3866 21.9393 47.4154 21.9081 47.4235C21.8769 47.4316 21.8442 47.417 21.8294 47.3883L15.3631 34.7864C15.3475 34.7561 15.3564 34.719 15.384 34.6991ZM15.6906 35.1227L21.8111 47.0506L21.6036 41.1127L15.6906 35.1227Z" fill="#E4751F"/>
<path d="M48.3876 41.0833L48.1133 47.3567L54.6072 34.7548L48.3876 41.0833Z" fill="#E4751F"/>
<path fill-rule="evenodd" clip-rule="evenodd" d="M54.6228 34.6991C54.6504 34.7191 54.6592 34.7562 54.6436 34.7865L48.1497 47.3884C48.1349 47.4171 48.102 47.4317 48.0708 47.4234C48.0395 47.4151 48.0182 47.3861 48.0196 47.3538L48.2939 41.0804C48.2947 41.0634 48.3017 41.0473 48.3136 41.0351L54.5332 34.7066C54.5571 34.6823 54.5952 34.6791 54.6228 34.6991ZM48.4305 41.1129L48.171 47.0461L54.3128 35.1275L48.4305 41.1129Z" fill="#E4751F"/>
<path d="M30.8343 35.4407L29.3828 43.3586L31.1914 52.7004L31.6021 40.399L30.8343 35.4407Z" fill="#E4751F"/>
<path fill-rule="evenodd" clip-rule="evenodd" d="M30.8456 35.3715C30.8792 35.3719 30.9076 35.3966 30.9128 35.4298L31.6806 40.3882C31.6812 40.3924 31.6815 40.3967 31.6813 40.401L31.2706 52.7024C31.2694 52.7374 31.2421 52.766 31.2071 52.7688C31.1721 52.7715 31.1407 52.7476 31.134 52.7132L29.3255 43.3714C29.3238 43.3629 29.3238 43.3543 29.3253 43.3458L30.7769 35.428C30.7829 35.3949 30.812 35.371 30.8456 35.3715ZM29.4633 43.3579L31.1532 52.087L31.5434 40.4029L30.8389 35.8538L29.4633 43.3579Z" fill="#E4751F"/>
<path d="M39.2037 35.4407L38.4648 40.3715L38.7929 52.7004L40.629 43.3586L39.2037 35.4407Z" fill="#E4751F"/>
<path fill-rule="evenodd" clip-rule="evenodd" d="M39.1935 35.3715C39.2272 35.371 39.2564 35.395 39.2623 35.4282L40.6877 43.346C40.6892 43.3545 40.6891 43.3631 40.6875 43.3715L38.8513 52.7134C38.8446 52.7478 38.813 52.7717 38.778 52.7687C38.7429 52.7658 38.7158 52.737 38.7148 52.7019L38.3867 40.373C38.3866 40.3689 38.3869 40.3649 38.3875 40.3609L39.1263 35.4302C39.1313 35.3968 39.1598 35.372 39.1935 35.3715ZM39.2007 35.864L38.5247 40.3754L38.8361 52.0763L40.5497 43.3577L39.2007 35.864Z" fill="#E4751F"/>
<path d="M40.6291 43.3583L38.793 52.7001L40.108 53.6043L48.1086 47.3572L48.3829 41.0838L40.6291 43.3583Z" fill="#F6851B"/>
<path fill-rule="evenodd" clip-rule="evenodd" d="M48.4045 41.0287C48.422 41.0425 48.4318 41.0638 48.4308 41.086L48.1565 47.3594C48.1557 47.3795 48.146 47.3983 48.1301 47.4107L40.1295 53.6579C40.1058 53.6764 40.0728 53.6774 40.0481 53.6603L38.733 52.7561C38.7104 52.7405 38.6991 52.7129 38.7044 52.686L40.5405 43.3442C40.5455 43.3189 40.5641 43.2986 40.5888 43.2913L48.3426 41.0169C48.3639 41.0106 48.387 41.015 48.4045 41.0287ZM40.6677 43.4118L38.8484 52.6681L40.0845 53.5181L48.0202 47.3216L48.2889 41.1763L40.6677 43.4118Z" fill="#F6851B"/>
<path d="M21.6523 41.0838L21.8715 47.3572L29.8721 53.6043L31.1871 52.7001L29.3786 43.3583L21.6523 41.0838Z" fill="#F6851B"/>
<path fill-rule="evenodd" clip-rule="evenodd" d="M21.6204 41.0285C21.6379 41.015 21.6609 41.0106 21.6821 41.0169L29.4084 43.2913C29.4331 43.2986 29.4517 43.3191 29.4566 43.3443L31.2651 52.6862C31.2704 52.7131 31.2591 52.7405 31.2365 52.7561L29.9215 53.6603C29.8967 53.6774 29.8637 53.6764 29.84 53.6579L21.8394 47.4107C21.8234 47.3981 21.8137 47.3791 21.813 47.3588L21.5938 41.0854C21.593 41.0633 21.6029 41.0421 21.6204 41.0285ZM21.7349 41.1761L21.9496 47.3218L29.885 53.5181L31.1212 52.668L29.3292 43.4117L21.7349 41.1761Z" fill="#F6851B"/>
<path d="M40.7693 62.2064L40.852 59.659L40.167 59.0553H29.8382L29.2082 59.659L29.2633 62.2064L20.6328 58.1248L23.6461 60.5895L29.7555 64.8365H40.2497L46.3866 60.5895L49.3999 58.1248L40.7693 62.2064Z" fill="#C0AD9E"/>
<path fill-rule="evenodd" clip-rule="evenodd" d="M20.5458 58.0885C20.5644 58.0591 20.6021 58.0482 20.6335 58.0631L29.1633 62.097L29.1106 59.6611C29.1102 59.6418 29.1178 59.6232 29.1318 59.6098L29.7617 59.0061C29.7746 58.9938 29.7917 58.9869 29.8094 58.9869H40.1382C40.155 58.9869 40.1712 58.993 40.1838 59.0041L40.8689 59.6079C40.8843 59.6215 40.8929 59.6413 40.8922 59.6618L40.8132 62.0964L49.3417 58.0631C49.3732 58.0482 49.4108 58.0591 49.4294 58.0885C49.448 58.118 49.4417 58.1567 49.4148 58.1787L46.4015 60.6434C46.401 60.6438 46.4005 60.6442 46.4 60.6446C46.399 60.6453 46.398 60.646 46.3971 60.6467L40.2602 64.8938C40.2486 64.9017 40.235 64.906 40.2209 64.906H29.7267C29.7127 64.906 29.6989 64.9017 29.6874 64.8937L23.5781 60.6466C23.5766 60.6456 23.5751 60.6445 23.5738 60.6434L20.5604 58.1787C20.5335 58.1567 20.5272 58.118 20.5458 58.0885ZM48.8921 58.4282L40.7701 62.2693C40.7484 62.2796 40.7229 62.2778 40.7028 62.2646C40.6827 62.2514 40.6709 62.2288 40.6717 62.2048L40.7534 59.6898L40.1122 59.1248H29.8371L29.249 59.6884L29.3035 62.2055C29.304 62.2294 29.2922 62.2518 29.2721 62.2648C29.2521 62.2778 29.2267 62.2795 29.2051 62.2693L21.0832 58.4282L23.6589 60.535L29.7483 64.7682H40.1994L46.3163 60.535L48.8921 58.4282Z" fill="#C0AD9E"/>
<path d="M40.0833 53.6047L38.7682 52.7004H31.1798L29.8648 53.6047L29.1797 59.6603L29.8096 59.0565H40.1384L40.8235 59.6603L40.0833 53.6047Z" fill="#161616"/>
<path fill-rule="evenodd" clip-rule="evenodd" d="M31.1511 52.6437C31.1626 52.6358 31.1762 52.6316 31.1902 52.6316H38.7786C38.7925 52.6316 38.8061 52.6358 38.8176 52.6437L40.1327 53.548C40.149 53.5592 40.1596 53.5768 40.162 53.5964L40.9023 59.652C40.9057 59.6804 40.8913 59.708 40.866 59.7213C40.8407 59.7347 40.8098 59.731 40.7883 59.7121L40.1227 59.1255H29.8477L29.2377 59.7101C29.2168 59.7302 29.1855 59.735 29.1594 59.7221C29.1334 59.7093 29.1183 59.6815 29.1215 59.6526L29.8066 53.597C29.8089 53.5772 29.8196 53.5593 29.8361 53.548L31.1511 52.6437ZM31.2116 52.7694L29.9401 53.6438L29.2799 59.4787L29.7723 59.0068C29.7851 58.9945 29.8022 58.9877 29.82 58.9877H40.1488C40.1655 58.9877 40.1818 58.9938 40.1943 59.0049L40.7435 59.4888L40.029 53.644L38.7572 52.7694H31.2116Z" fill="#161616"/>
<path d="M67.6179 21.6307L69.9461 10.4527L66.4669 0.0688171L40.1094 19.6305L50.2466 28.2059L64.5756 32.3978L67.7544 28.6994L66.3842 27.7138L68.5759 25.7137L66.8777 24.3986L69.0694 22.7265L67.6179 21.6307Z" fill="#763D16"/>
<path fill-rule="evenodd" clip-rule="evenodd" d="M66.4705 0.00317148C66.4916 0.00979012 66.5082 0.0260955 66.5152 0.0470267L69.9945 10.431C69.9983 10.4425 69.9991 10.455 69.9966 10.4669L67.6773 21.6021L69.0939 22.6716C69.1111 22.6846 69.1213 22.7049 69.1213 22.7265C69.1214 22.748 69.1113 22.7684 69.0942 22.7815L66.9738 24.3991L68.6011 25.6593C68.6172 25.6717 68.627 25.6907 68.6278 25.711C68.6286 25.7313 68.6204 25.751 68.6054 25.7647L66.4764 27.7076L67.7776 28.6436C67.7933 28.6548 67.8035 28.6722 67.8058 28.6914C67.8081 28.7105 67.8022 28.7298 67.7896 28.7444L64.6109 32.4428C64.5933 32.4634 64.5652 32.4717 64.5393 32.4641L50.2102 28.2722C50.201 28.2695 50.1924 28.2649 50.185 28.2586L40.0478 19.6833C40.0318 19.6697 40.0228 19.6495 40.0235 19.6284C40.0241 19.6074 40.0344 19.5878 40.0513 19.5753L66.4088 0.0135778C66.4265 0.000421927 66.4495 -0.00344716 66.4705 0.00317148ZM40.2033 19.6342L50.2629 28.144L64.5353 32.3193L67.6361 28.7116L66.3269 27.7699C66.3101 27.7577 66.2996 27.7387 66.2984 27.7179C66.2972 27.6972 66.3054 27.677 66.3207 27.663L68.4519 25.7181L66.8185 24.4532C66.8015 24.4401 66.7917 24.4199 66.7917 24.3985C66.7918 24.3771 66.8018 24.3569 66.8189 24.3439L68.9384 22.7269L67.5594 21.6858C67.5381 21.6697 67.528 21.6428 67.5334 21.6167L69.8578 10.4571L66.4147 0.180865L40.2033 19.6342Z" fill="#763D16"/>
<path d="M0.0664062 10.4527L2.39462 21.6307L0.915537 22.7265L3.10729 24.3986L1.43659 25.7137L3.62834 27.7138L2.25816 28.6994L5.40931 32.3978L19.7384 28.2059L29.8756 19.6305L3.51807 0.0688171L0.0664062 10.4527Z" fill="#763D16"/>
<path fill-rule="evenodd" clip-rule="evenodd" d="M3.49984 0.00319621C3.52092 -0.00345631 3.54391 0.000404632 3.56166 0.0135778L29.9192 19.5753C29.9361 19.5878 29.9463 19.6074 29.947 19.6284C29.9476 19.6495 29.9387 19.6697 29.9226 19.6833L19.7854 28.2586C19.7781 28.2649 19.7695 28.2695 19.7603 28.2722L5.43118 32.4641C5.40511 32.4717 5.37698 32.4633 5.35937 32.4426L2.20821 28.7442C2.19572 28.7296 2.18993 28.7103 2.19225 28.6912C2.19457 28.6721 2.20479 28.6548 2.22043 28.6436L3.52166 27.7076L1.39265 25.7647C1.37769 25.751 1.3695 25.7315 1.37023 25.7113C1.37097 25.691 1.38057 25.6721 1.39648 25.6596L2.99729 24.3996L0.876249 22.7815C0.859024 22.7683 0.84898 22.7478 0.849132 22.7262C0.849284 22.7045 0.859614 22.6842 0.877022 22.6713L2.32067 21.6017L0.00144812 10.4669C-0.00103161 10.455 -0.000317245 10.4427 0.0035187 10.4311L3.45518 0.0471829C3.46215 0.0262075 3.47876 0.00984874 3.49984 0.00319621ZM3.55596 0.181008L0.140184 10.457L2.46461 21.6167C2.4701 21.643 2.45977 21.6702 2.43817 21.6862L1.03274 22.7275L3.15161 24.3439C3.16855 24.3569 3.17856 24.3769 3.17872 24.3982C3.17888 24.4195 3.16918 24.4397 3.15243 24.4529L1.54561 25.7177L3.67732 27.663C3.69266 27.677 3.70087 27.6972 3.69967 27.7179C3.69846 27.7387 3.68797 27.7577 3.67111 27.7699L2.36166 28.7118L5.43533 32.3192L19.7075 28.144L29.7672 19.6342L3.55596 0.181008Z" fill="#763D16"/>
<path d="M64.579 32.3981L50.2499 28.2063L54.6072 34.7553L48.1133 47.3572L56.6611 47.2483H69.4022L64.579 32.3981Z" fill="#F6851B"/>
<path fill-rule="evenodd" clip-rule="evenodd" d="M50.1695 28.1655C50.1867 28.1422 50.2166 28.1321 50.2444 28.1402L64.5735 32.3321C64.5954 32.3385 64.6127 32.3553 64.6197 32.377L69.4429 47.2271C69.4497 47.2481 69.4461 47.2711 69.4331 47.2889C69.4202 47.3068 69.3994 47.3173 69.3774 47.3173H56.6363L48.0893 47.4262C48.0651 47.4265 48.0426 47.4141 48.0298 47.3935C48.0171 47.373 48.0161 47.3472 48.0272 47.3257L54.5025 34.7599L50.1677 28.2445C50.1516 28.2204 50.1524 28.1889 50.1695 28.1655ZM50.3872 28.3256L54.6398 34.7172C54.6536 34.7381 54.6551 34.7648 54.6436 34.787L48.2023 47.2869L56.6354 47.1795L56.6363 47.1795L69.2825 47.1795L64.4998 32.4542L50.3872 28.3256Z" fill="#F6851B"/>
<path d="M19.7495 28.2063L5.42043 32.3981L0.652344 47.2483H13.3659L21.8861 47.3572L15.4198 34.7553L19.7495 28.2063Z" fill="#F6851B"/>
<path fill-rule="evenodd" clip-rule="evenodd" d="M19.7958 28.1654C19.813 28.1887 19.8138 28.2202 19.7978 28.2444L15.4903 34.7598L21.9382 47.3258C21.9493 47.3473 21.9482 47.373 21.9355 47.3936C21.9228 47.4141 21.9002 47.4265 21.876 47.4262L13.3567 47.3173H0.643142C0.621122 47.3173 0.600427 47.3068 0.587453 47.289C0.574479 47.2712 0.570787 47.2483 0.577519 47.2273L5.34561 32.3772C5.3526 32.3554 5.36993 32.3385 5.39188 32.3321L19.721 28.1402C19.7487 28.1321 19.7786 28.1422 19.7958 28.1654ZM5.46568 32.4541L0.73766 47.1795H13.3576L21.7633 47.2869L15.3493 34.7869C15.3379 34.7647 15.3394 34.7382 15.3531 34.7174L19.579 28.3254L5.46568 32.4541Z" fill="#F6851B"/>
<path d="M39.1983 35.4397L40.1025 19.6301L44.2682 8.36951H25.7734L29.884 19.6301L30.842 35.4397L31.1715 40.4256L31.1991 52.6994H38.7875L38.8426 40.4256L39.1983 35.4397Z" fill="#F6851B"/>
<path fill-rule="evenodd" clip-rule="evenodd" d="M25.7195 8.33011C25.7324 8.31168 25.7535 8.3007 25.776 8.3007H44.2707C44.2933 8.3007 44.3144 8.31173 44.3273 8.33024C44.3402 8.34874 44.3432 8.37238 44.3354 8.39353L40.1733 19.6445L39.2696 35.4437L39.2695 35.4447L38.914 40.4283L38.8589 52.6998C38.8587 52.7377 38.8279 52.7684 38.79 52.7684H31.2016C31.1636 52.7684 31.1327 52.7376 31.1326 52.6996L31.1051 40.428L30.7758 35.4443L30.7758 35.444L29.8183 19.6444L25.7112 8.39325C25.7035 8.37212 25.7066 8.34855 25.7195 8.33011ZM25.8745 8.43854L29.9513 19.6066C29.9535 19.6129 29.9549 19.6194 29.9553 19.6261L30.9133 35.4353L30.9133 35.4356L31.2428 40.4211C31.2429 40.4226 31.2429 40.4241 31.2429 40.4255L31.2703 52.6306H38.7214L38.7762 40.4254C38.7762 40.4238 38.7763 40.4223 38.7764 40.4208L39.132 35.4359L39.132 35.4349L40.0362 19.6263C40.0366 19.6195 40.038 19.6128 40.0404 19.6063L44.1718 8.43854H25.8745Z" fill="#F6851B"/>
</svg>
