<svg width="115" height="20" viewBox="0 0 115 20" fill="none" xmlns="http://www.w3.org/2000/svg">
<path d="M2 7.04456H17.3438L12.2992 2" stroke="#A2A2A2" stroke-width="3" stroke-linecap="round" stroke-linejoin="round"/>
<path d="M2 7.04456H17.3438L12.2992 2" stroke="url(#paint0_linear_4102_10185)" stroke-width="3" stroke-linecap="round" stroke-linejoin="round"/>
<path d="M2 7.04456H17.3438L12.2992 2" stroke="black" stroke-opacity="0.2" stroke-width="3" stroke-linecap="round" stroke-linejoin="round"/>
<path d="M17.3438 12.8251L2 12.8251L7.04456 17.8696" stroke="#A2A2A2" stroke-width="3" stroke-linecap="round" stroke-linejoin="round"/>
<path d="M17.3438 12.8251L2 12.8251L7.04456 17.8696" stroke="url(#paint1_linear_4102_10185)" stroke-width="3" stroke-linecap="round" stroke-linejoin="round"/>
<path d="M17.3438 12.8251L2 12.8251L7.04456 17.8696" stroke="black" stroke-opacity="0.2" stroke-width="3" stroke-linecap="round" stroke-linejoin="round"/>
<path d="M27.5433 4.88556V3.79181H35.1797V4.88556H31.978V13.9736H30.745V4.88556H27.5433ZM36.2705 13.9736V6.33727H37.404V7.49068H37.4836C37.6228 7.11284 37.8747 6.80626 38.2393 6.57093C38.6038 6.33561 39.0148 6.21795 39.4722 6.21795C39.5584 6.21795 39.6661 6.21961 39.7954 6.22292C39.9246 6.22624 40.0224 6.23121 40.0887 6.23784V7.43102C40.0489 7.42108 39.9578 7.40616 39.8152 7.38627C39.676 7.36307 39.5286 7.35147 39.3728 7.35147C39.0016 7.35147 38.6701 7.42936 38.3785 7.58514C38.0901 7.7376 37.8614 7.94972 37.6924 8.2215C37.5267 8.48997 37.4438 8.79655 37.4438 9.14125V13.9736H36.2705ZM43.8666 14.1526C43.3827 14.1526 42.9436 14.0615 42.5492 13.8792C42.1548 13.6936 41.8416 13.4268 41.6095 13.0787C41.3775 12.7274 41.2615 12.3032 41.2615 11.806C41.2615 11.3685 41.3477 11.0139 41.5201 10.7421C41.6924 10.467 41.9228 10.2516 42.2111 10.0958C42.4995 9.94002 42.8176 9.82401 43.1657 9.74778C43.517 9.66824 43.87 9.60526 44.2246 9.55886C44.6886 9.4992 45.0648 9.45446 45.3532 9.42463C45.6448 9.39148 45.8569 9.3368 45.9895 9.26056C46.1254 9.18433 46.1934 9.05176 46.1934 8.86284V8.82306C46.1934 8.33253 46.0591 7.95138 45.7907 7.6796C45.5255 7.40782 45.1228 7.27193 44.5826 7.27193C44.0224 7.27193 43.5833 7.39456 43.2651 7.63983C42.9469 7.88509 42.7232 8.14693 42.5939 8.42534L41.4803 8.02761C41.6791 7.56359 41.9443 7.20233 42.2757 6.9438C42.6105 6.68197 42.9751 6.49967 43.3695 6.39693C43.7672 6.29087 44.1583 6.23784 44.5428 6.23784C44.788 6.23784 45.0698 6.26767 45.388 6.32733C45.7095 6.38367 46.0193 6.50133 46.3176 6.68031C46.6193 6.85929 46.8695 7.12941 47.0684 7.49068C47.2672 7.85195 47.3666 8.33585 47.3666 8.94238V13.9736H46.1934V12.9395H46.1337C46.0541 13.1053 45.9216 13.2826 45.736 13.4715C45.5504 13.6604 45.3034 13.8212 44.9952 13.9537C44.687 14.0863 44.3108 14.1526 43.8666 14.1526ZM44.0456 13.0986C44.5096 13.0986 44.9007 13.0075 45.2189 12.8252C45.5404 12.6429 45.7824 12.4076 45.9448 12.1192C46.1105 11.8309 46.1934 11.5276 46.1934 11.2094V10.1356C46.1436 10.1952 46.0343 10.2499 45.8652 10.2996C45.6995 10.346 45.5073 10.3875 45.2885 10.4239C45.0731 10.4571 44.8626 10.4869 44.6571 10.5134C44.455 10.5366 44.2909 10.5565 44.1649 10.5731C43.86 10.6128 43.575 10.6775 43.3098 10.767C43.048 10.8531 42.8359 10.984 42.6735 11.1597C42.5144 11.3321 42.4348 11.5674 42.4348 11.8657C42.4348 12.2733 42.5856 12.5816 42.8872 12.7904C43.1922 12.9959 43.5783 13.0986 44.0456 13.0986ZM52.5317 14.1327C51.8953 14.1327 51.3335 13.972 50.8463 13.6505C50.3591 13.3257 49.9779 12.8683 49.7028 12.2783C49.4278 11.685 49.2902 10.984 49.2902 10.1753C49.2902 9.37325 49.4278 8.67723 49.7028 8.08727C49.9779 7.49731 50.3608 7.04158 50.8513 6.72008C51.3418 6.39859 51.9086 6.23784 52.5516 6.23784C53.0487 6.23784 53.4415 6.3207 53.7298 6.48642C54.0215 6.64882 54.2436 6.83443 54.396 7.04323C54.5518 7.24873 54.6728 7.41776 54.759 7.55034H54.8584V3.79181H56.0317V13.9736H54.8982V12.8003H54.759C54.6728 12.9395 54.5501 13.1152 54.3911 13.3273C54.232 13.5361 54.0049 13.7234 53.71 13.8891C53.415 14.0515 53.0222 14.1327 52.5317 14.1327ZM52.6908 13.0787C53.1614 13.0787 53.5591 12.9561 53.884 12.7108C54.2088 12.4623 54.4557 12.1192 54.6247 11.6817C54.7938 11.2409 54.8783 10.7322 54.8783 10.1555C54.8783 9.58537 54.7954 9.08656 54.6297 8.659C54.464 8.22813 54.2187 7.89338 53.8939 7.65474C53.5691 7.41279 53.168 7.29181 52.6908 7.29181C52.1936 7.29181 51.7793 7.41942 51.4479 7.67463C51.1198 7.92652 50.8728 8.26956 50.7071 8.70375C50.5447 9.13462 50.4635 9.61852 50.4635 10.1555C50.4635 10.699 50.5464 11.1929 50.7121 11.637C50.8811 12.0778 51.1297 12.4291 51.4578 12.691C51.7893 12.9495 52.2002 13.0787 52.6908 13.0787ZM61.6852 14.1327C60.9494 14.1327 60.3147 13.9703 59.7811 13.6455C59.2508 13.3174 58.8414 12.86 58.5531 12.2733C58.268 11.6834 58.1255 10.9973 58.1255 10.2151C58.1255 9.43291 58.268 8.74352 58.5531 8.14693C58.8414 7.54702 59.2425 7.07969 59.7562 6.74494C60.2732 6.40687 60.8765 6.23784 61.5659 6.23784C61.9636 6.23784 62.3563 6.30413 62.7441 6.4367C63.1319 6.56928 63.4849 6.78471 63.8031 7.08301C64.1213 7.37799 64.3748 7.76909 64.5637 8.2563C64.7526 8.74352 64.8471 9.34342 64.8471 10.056V10.5532H58.9607V9.53897H63.6539C63.6539 9.1081 63.5678 8.72363 63.3954 8.38556C63.2264 8.0475 62.9844 7.78069 62.6696 7.58514C62.358 7.38959 61.9901 7.29181 61.5659 7.29181C61.0985 7.29181 60.6942 7.40782 60.3528 7.63983C60.0147 7.86852 59.7545 8.16681 59.5723 8.53471C59.39 8.90261 59.2988 9.29702 59.2988 9.71795V10.3941C59.2988 10.9708 59.3982 11.4597 59.5971 11.8607C59.7993 12.2584 60.0794 12.5617 60.4373 12.7705C60.7953 12.976 61.2112 13.0787 61.6852 13.0787C61.9934 13.0787 62.2718 13.0357 62.5204 12.9495C62.7723 12.86 62.9894 12.7274 63.1717 12.5518C63.354 12.3728 63.4948 12.1507 63.5943 11.8856L64.7278 12.2037C64.6085 12.5882 64.408 12.9263 64.1262 13.218C63.8445 13.5063 63.4965 13.7317 63.0822 13.8941C62.6679 14.0532 62.2022 14.1327 61.6852 14.1327ZM70.3713 3.31454L67.0901 15.5049H66.0162L69.2975 3.31454H70.3713ZM72.0612 13.9736V3.79181H75.6209C76.3302 3.79181 76.9152 3.91445 77.3759 4.15971C77.8366 4.40166 78.1796 4.72813 78.405 5.13912C78.6304 5.54679 78.7431 5.9992 78.7431 6.49636C78.7431 6.93386 78.6652 7.29513 78.5094 7.58017C78.3569 7.8652 78.1547 8.09058 77.9029 8.2563C77.6543 8.42202 77.3842 8.54466 77.0925 8.6242V8.72363C77.404 8.74352 77.7172 8.85289 78.0321 9.05176C78.347 9.25062 78.6105 9.53566 78.8226 9.90687C79.0347 10.2781 79.1408 10.7322 79.1408 11.2691C79.1408 11.7795 79.0248 12.2385 78.7928 12.6462C78.5608 13.0539 78.1945 13.377 77.694 13.6157C77.1936 13.8543 76.5423 13.9736 75.7402 13.9736H72.0612ZM73.2942 12.8799H75.7402C76.5456 12.8799 77.1173 12.7241 77.4554 12.4126C77.7968 12.0977 77.9675 11.7165 77.9675 11.2691C77.9675 10.9244 77.8797 10.6062 77.704 10.3145C77.5283 10.0196 77.2781 9.78424 76.9533 9.60858C76.6285 9.4296 76.244 9.34011 75.7999 9.34011H73.2942V12.8799ZM73.2942 8.26625H75.5811C75.9523 8.26625 76.2871 8.19333 76.5854 8.0475C76.887 7.90166 77.1256 7.69617 77.3013 7.43102C77.4803 7.16587 77.5698 6.85431 77.5698 6.49636C77.5698 6.04892 77.414 5.66942 77.1024 5.35787C76.7909 5.043 76.297 4.88556 75.6209 4.88556H73.2942V8.26625ZM81.1476 13.9736V6.33727H82.2811V7.49068H82.3607C82.4999 7.11284 82.7518 6.80626 83.1164 6.57093C83.4809 6.33561 83.8919 6.21795 84.3493 6.21795C84.4355 6.21795 84.5432 6.21961 84.6725 6.22292C84.8017 6.22624 84.8995 6.23121 84.9658 6.23784V7.43102C84.926 7.42108 84.8349 7.40616 84.6924 7.38627C84.5532 7.36307 84.4057 7.35147 84.2499 7.35147C83.8787 7.35147 83.5472 7.42936 83.2556 7.58514C82.9672 7.7376 82.7385 7.94972 82.5695 8.2215C82.4038 8.48997 82.3209 8.79655 82.3209 9.14125V13.9736H81.1476ZM86.4966 13.9736V6.33727H87.6699V13.9736H86.4966ZM87.0932 5.06454C86.8645 5.06454 86.6673 4.98665 86.5016 4.83088C86.3392 4.6751 86.258 4.48784 86.258 4.26909C86.258 4.05034 86.3392 3.86307 86.5016 3.7073C86.6673 3.55152 86.8645 3.47363 87.0932 3.47363C87.3219 3.47363 87.5174 3.55152 87.6798 3.7073C87.8456 3.86307 87.9284 4.05034 87.9284 4.26909C87.9284 4.48784 87.8456 4.6751 87.6798 4.83088C87.5174 4.98665 87.3219 5.06454 87.0932 5.06454ZM92.8424 14.1327C92.206 14.1327 91.6442 13.972 91.157 13.6505C90.6698 13.3257 90.2886 12.8683 90.0135 12.2783C89.7385 11.685 89.6009 10.984 89.6009 10.1753C89.6009 9.37325 89.7385 8.67723 90.0135 8.08727C90.2886 7.49731 90.6715 7.04158 91.162 6.72008C91.6525 6.39859 92.2193 6.23784 92.8623 6.23784C93.3594 6.23784 93.7522 6.3207 94.0405 6.48642C94.3322 6.64882 94.5543 6.83443 94.7067 7.04323C94.8625 7.24873 94.9835 7.41776 95.0697 7.55034H95.1691V3.79181H96.3424V13.9736H95.2089V12.8003H95.0697C94.9835 12.9395 94.8609 13.1152 94.7018 13.3273C94.5427 13.5361 94.3156 13.7234 94.0207 13.8891C93.7257 14.0515 93.3329 14.1327 92.8424 14.1327ZM93.0015 13.0787C93.4721 13.0787 93.8698 12.9561 94.1947 12.7108C94.5195 12.4623 94.7664 12.1192 94.9354 11.6817C95.1045 11.2409 95.189 10.7322 95.189 10.1555C95.189 9.58537 95.1061 9.08656 94.9404 8.659C94.7747 8.22813 94.5294 7.89338 94.2046 7.65474C93.8798 7.41279 93.4787 7.29181 93.0015 7.29181C92.5043 7.29181 92.09 7.41942 91.7586 7.67463C91.4305 7.92652 91.1835 8.26956 91.0178 8.70375C90.8554 9.13462 90.7742 9.61852 90.7742 10.1555C90.7742 10.699 90.8571 11.1929 91.0228 11.637C91.1918 12.0778 91.4404 12.4291 91.7685 12.691C92.1 12.9495 92.5109 13.0787 93.0015 13.0787ZM101.877 16.9964C101.31 16.9964 100.823 16.9234 100.415 16.7776C100.007 16.6351 99.6675 16.4462 99.3957 16.2108C99.1273 15.9788 98.9135 15.7303 98.7544 15.4651L99.6891 14.8089C99.7951 14.9481 99.9294 15.1072 100.092 15.2861C100.254 15.4684 100.476 15.6259 100.758 15.7584C101.043 15.8943 101.416 15.9623 101.877 15.9623C102.493 15.9623 103.002 15.8131 103.403 15.5148C103.804 15.2165 104.004 14.7492 104.004 14.1128V12.5617H103.905C103.819 12.7009 103.696 12.8733 103.537 13.0787C103.381 13.2809 103.156 13.4616 102.861 13.6206C102.569 13.7764 102.175 13.8543 101.678 13.8543C101.061 13.8543 100.508 13.7085 100.017 13.4168C99.53 13.1251 99.1438 12.7009 98.8588 12.1441C98.5771 11.5873 98.4362 10.9111 98.4362 10.1157C98.4362 9.33348 98.5738 8.65237 98.8489 8.07235C99.124 7.48902 99.5068 7.03826 99.9973 6.72008C100.488 6.39859 101.055 6.23784 101.698 6.23784C102.195 6.23784 102.589 6.3207 102.881 6.48642C103.176 6.64882 103.401 6.83443 103.557 7.04323C103.716 7.24873 103.839 7.41776 103.925 7.55034H104.044V6.33727H105.178V14.1924C105.178 14.8486 105.029 15.3823 104.73 15.7932C104.435 16.2075 104.038 16.5108 103.537 16.703C103.04 16.8986 102.486 16.9964 101.877 16.9964ZM101.837 12.8003C102.307 12.8003 102.705 12.6926 103.03 12.4772C103.355 12.2617 103.602 11.9519 103.771 11.5475C103.94 11.1431 104.024 10.6592 104.024 10.0958C104.024 9.5456 103.941 9.06004 103.776 8.63912C103.61 8.21819 103.365 7.88841 103.04 7.64977C102.715 7.41113 102.314 7.29181 101.837 7.29181C101.34 7.29181 100.925 7.41776 100.594 7.66966C100.266 7.92155 100.019 8.25962 99.8531 8.68386C99.6907 9.1081 99.6095 9.57875 99.6095 10.0958C99.6095 10.6261 99.6924 11.0951 99.8581 11.5028C100.027 11.9071 100.276 12.2253 100.604 12.4573C100.935 12.686 101.346 12.8003 101.837 12.8003ZM110.667 14.1327C109.931 14.1327 109.297 13.9703 108.763 13.6455C108.233 13.3174 107.823 12.86 107.535 12.2733C107.25 11.6834 107.107 10.9973 107.107 10.2151C107.107 9.43291 107.25 8.74352 107.535 8.14693C107.823 7.54702 108.224 7.07969 108.738 6.74494C109.255 6.40687 109.858 6.23784 110.548 6.23784C110.946 6.23784 111.338 6.30413 111.726 6.4367C112.114 6.56928 112.467 6.78471 112.785 7.08301C113.103 7.37799 113.357 7.76909 113.546 8.2563C113.735 8.74352 113.829 9.34342 113.829 10.056V10.5532H107.943V9.53897H112.636C112.636 9.1081 112.55 8.72363 112.377 8.38556C112.208 8.0475 111.966 7.78069 111.652 7.58514C111.34 7.38959 110.972 7.29181 110.548 7.29181C110.08 7.29181 109.676 7.40782 109.335 7.63983C108.997 7.86852 108.736 8.16681 108.554 8.53471C108.372 8.90261 108.281 9.29702 108.281 9.71795V10.3941C108.281 10.9708 108.38 11.4597 108.579 11.8607C108.781 12.2584 109.061 12.5617 109.419 12.7705C109.777 12.976 110.193 13.0787 110.667 13.0787C110.975 13.0787 111.254 13.0357 111.502 12.9495C111.754 12.86 111.971 12.7274 112.154 12.5518C112.336 12.3728 112.477 12.1507 112.576 11.8856L113.71 12.2037C113.59 12.5882 113.39 12.9263 113.108 13.218C112.826 13.5063 112.478 13.7317 112.064 13.8941C111.65 14.0532 111.184 14.1327 110.667 14.1327Z" fill="#A2A2A2"/>
<path d="M27.5433 4.88556V3.79181H35.1797V4.88556H31.978V13.9736H30.745V4.88556H27.5433ZM36.2705 13.9736V6.33727H37.404V7.49068H37.4836C37.6228 7.11284 37.8747 6.80626 38.2393 6.57093C38.6038 6.33561 39.0148 6.21795 39.4722 6.21795C39.5584 6.21795 39.6661 6.21961 39.7954 6.22292C39.9246 6.22624 40.0224 6.23121 40.0887 6.23784V7.43102C40.0489 7.42108 39.9578 7.40616 39.8152 7.38627C39.676 7.36307 39.5286 7.35147 39.3728 7.35147C39.0016 7.35147 38.6701 7.42936 38.3785 7.58514C38.0901 7.7376 37.8614 7.94972 37.6924 8.2215C37.5267 8.48997 37.4438 8.79655 37.4438 9.14125V13.9736H36.2705ZM43.8666 14.1526C43.3827 14.1526 42.9436 14.0615 42.5492 13.8792C42.1548 13.6936 41.8416 13.4268 41.6095 13.0787C41.3775 12.7274 41.2615 12.3032 41.2615 11.806C41.2615 11.3685 41.3477 11.0139 41.5201 10.7421C41.6924 10.467 41.9228 10.2516 42.2111 10.0958C42.4995 9.94002 42.8176 9.82401 43.1657 9.74778C43.517 9.66824 43.87 9.60526 44.2246 9.55886C44.6886 9.4992 45.0648 9.45446 45.3532 9.42463C45.6448 9.39148 45.8569 9.3368 45.9895 9.26056C46.1254 9.18433 46.1934 9.05176 46.1934 8.86284V8.82306C46.1934 8.33253 46.0591 7.95138 45.7907 7.6796C45.5255 7.40782 45.1228 7.27193 44.5826 7.27193C44.0224 7.27193 43.5833 7.39456 43.2651 7.63983C42.9469 7.88509 42.7232 8.14693 42.5939 8.42534L41.4803 8.02761C41.6791 7.56359 41.9443 7.20233 42.2757 6.9438C42.6105 6.68197 42.9751 6.49967 43.3695 6.39693C43.7672 6.29087 44.1583 6.23784 44.5428 6.23784C44.788 6.23784 45.0698 6.26767 45.388 6.32733C45.7095 6.38367 46.0193 6.50133 46.3176 6.68031C46.6193 6.85929 46.8695 7.12941 47.0684 7.49068C47.2672 7.85195 47.3666 8.33585 47.3666 8.94238V13.9736H46.1934V12.9395H46.1337C46.0541 13.1053 45.9216 13.2826 45.736 13.4715C45.5504 13.6604 45.3034 13.8212 44.9952 13.9537C44.687 14.0863 44.3108 14.1526 43.8666 14.1526ZM44.0456 13.0986C44.5096 13.0986 44.9007 13.0075 45.2189 12.8252C45.5404 12.6429 45.7824 12.4076 45.9448 12.1192C46.1105 11.8309 46.1934 11.5276 46.1934 11.2094V10.1356C46.1436 10.1952 46.0343 10.2499 45.8652 10.2996C45.6995 10.346 45.5073 10.3875 45.2885 10.4239C45.0731 10.4571 44.8626 10.4869 44.6571 10.5134C44.455 10.5366 44.2909 10.5565 44.1649 10.5731C43.86 10.6128 43.575 10.6775 43.3098 10.767C43.048 10.8531 42.8359 10.984 42.6735 11.1597C42.5144 11.3321 42.4348 11.5674 42.4348 11.8657C42.4348 12.2733 42.5856 12.5816 42.8872 12.7904C43.1922 12.9959 43.5783 13.0986 44.0456 13.0986ZM52.5317 14.1327C51.8953 14.1327 51.3335 13.972 50.8463 13.6505C50.3591 13.3257 49.9779 12.8683 49.7028 12.2783C49.4278 11.685 49.2902 10.984 49.2902 10.1753C49.2902 9.37325 49.4278 8.67723 49.7028 8.08727C49.9779 7.49731 50.3608 7.04158 50.8513 6.72008C51.3418 6.39859 51.9086 6.23784 52.5516 6.23784C53.0487 6.23784 53.4415 6.3207 53.7298 6.48642C54.0215 6.64882 54.2436 6.83443 54.396 7.04323C54.5518 7.24873 54.6728 7.41776 54.759 7.55034H54.8584V3.79181H56.0317V13.9736H54.8982V12.8003H54.759C54.6728 12.9395 54.5501 13.1152 54.3911 13.3273C54.232 13.5361 54.0049 13.7234 53.71 13.8891C53.415 14.0515 53.0222 14.1327 52.5317 14.1327ZM52.6908 13.0787C53.1614 13.0787 53.5591 12.9561 53.884 12.7108C54.2088 12.4623 54.4557 12.1192 54.6247 11.6817C54.7938 11.2409 54.8783 10.7322 54.8783 10.1555C54.8783 9.58537 54.7954 9.08656 54.6297 8.659C54.464 8.22813 54.2187 7.89338 53.8939 7.65474C53.5691 7.41279 53.168 7.29181 52.6908 7.29181C52.1936 7.29181 51.7793 7.41942 51.4479 7.67463C51.1198 7.92652 50.8728 8.26956 50.7071 8.70375C50.5447 9.13462 50.4635 9.61852 50.4635 10.1555C50.4635 10.699 50.5464 11.1929 50.7121 11.637C50.8811 12.0778 51.1297 12.4291 51.4578 12.691C51.7893 12.9495 52.2002 13.0787 52.6908 13.0787ZM61.6852 14.1327C60.9494 14.1327 60.3147 13.9703 59.7811 13.6455C59.2508 13.3174 58.8414 12.86 58.5531 12.2733C58.268 11.6834 58.1255 10.9973 58.1255 10.2151C58.1255 9.43291 58.268 8.74352 58.5531 8.14693C58.8414 7.54702 59.2425 7.07969 59.7562 6.74494C60.2732 6.40687 60.8765 6.23784 61.5659 6.23784C61.9636 6.23784 62.3563 6.30413 62.7441 6.4367C63.1319 6.56928 63.4849 6.78471 63.8031 7.08301C64.1213 7.37799 64.3748 7.76909 64.5637 8.2563C64.7526 8.74352 64.8471 9.34342 64.8471 10.056V10.5532H58.9607V9.53897H63.6539C63.6539 9.1081 63.5678 8.72363 63.3954 8.38556C63.2264 8.0475 62.9844 7.78069 62.6696 7.58514C62.358 7.38959 61.9901 7.29181 61.5659 7.29181C61.0985 7.29181 60.6942 7.40782 60.3528 7.63983C60.0147 7.86852 59.7545 8.16681 59.5723 8.53471C59.39 8.90261 59.2988 9.29702 59.2988 9.71795V10.3941C59.2988 10.9708 59.3982 11.4597 59.5971 11.8607C59.7993 12.2584 60.0794 12.5617 60.4373 12.7705C60.7953 12.976 61.2112 13.0787 61.6852 13.0787C61.9934 13.0787 62.2718 13.0357 62.5204 12.9495C62.7723 12.86 62.9894 12.7274 63.1717 12.5518C63.354 12.3728 63.4948 12.1507 63.5943 11.8856L64.7278 12.2037C64.6085 12.5882 64.408 12.9263 64.1262 13.218C63.8445 13.5063 63.4965 13.7317 63.0822 13.8941C62.6679 14.0532 62.2022 14.1327 61.6852 14.1327ZM70.3713 3.31454L67.0901 15.5049H66.0162L69.2975 3.31454H70.3713ZM72.0612 13.9736V3.79181H75.6209C76.3302 3.79181 76.9152 3.91445 77.3759 4.15971C77.8366 4.40166 78.1796 4.72813 78.405 5.13912C78.6304 5.54679 78.7431 5.9992 78.7431 6.49636C78.7431 6.93386 78.6652 7.29513 78.5094 7.58017C78.3569 7.8652 78.1547 8.09058 77.9029 8.2563C77.6543 8.42202 77.3842 8.54466 77.0925 8.6242V8.72363C77.404 8.74352 77.7172 8.85289 78.0321 9.05176C78.347 9.25062 78.6105 9.53566 78.8226 9.90687C79.0347 10.2781 79.1408 10.7322 79.1408 11.2691C79.1408 11.7795 79.0248 12.2385 78.7928 12.6462C78.5608 13.0539 78.1945 13.377 77.694 13.6157C77.1936 13.8543 76.5423 13.9736 75.7402 13.9736H72.0612ZM73.2942 12.8799H75.7402C76.5456 12.8799 77.1173 12.7241 77.4554 12.4126C77.7968 12.0977 77.9675 11.7165 77.9675 11.2691C77.9675 10.9244 77.8797 10.6062 77.704 10.3145C77.5283 10.0196 77.2781 9.78424 76.9533 9.60858C76.6285 9.4296 76.244 9.34011 75.7999 9.34011H73.2942V12.8799ZM73.2942 8.26625H75.5811C75.9523 8.26625 76.2871 8.19333 76.5854 8.0475C76.887 7.90166 77.1256 7.69617 77.3013 7.43102C77.4803 7.16587 77.5698 6.85431 77.5698 6.49636C77.5698 6.04892 77.414 5.66942 77.1024 5.35787C76.7909 5.043 76.297 4.88556 75.6209 4.88556H73.2942V8.26625ZM81.1476 13.9736V6.33727H82.2811V7.49068H82.3607C82.4999 7.11284 82.7518 6.80626 83.1164 6.57093C83.4809 6.33561 83.8919 6.21795 84.3493 6.21795C84.4355 6.21795 84.5432 6.21961 84.6725 6.22292C84.8017 6.22624 84.8995 6.23121 84.9658 6.23784V7.43102C84.926 7.42108 84.8349 7.40616 84.6924 7.38627C84.5532 7.36307 84.4057 7.35147 84.2499 7.35147C83.8787 7.35147 83.5472 7.42936 83.2556 7.58514C82.9672 7.7376 82.7385 7.94972 82.5695 8.2215C82.4038 8.48997 82.3209 8.79655 82.3209 9.14125V13.9736H81.1476ZM86.4966 13.9736V6.33727H87.6699V13.9736H86.4966ZM87.0932 5.06454C86.8645 5.06454 86.6673 4.98665 86.5016 4.83088C86.3392 4.6751 86.258 4.48784 86.258 4.26909C86.258 4.05034 86.3392 3.86307 86.5016 3.7073C86.6673 3.55152 86.8645 3.47363 87.0932 3.47363C87.3219 3.47363 87.5174 3.55152 87.6798 3.7073C87.8456 3.86307 87.9284 4.05034 87.9284 4.26909C87.9284 4.48784 87.8456 4.6751 87.6798 4.83088C87.5174 4.98665 87.3219 5.06454 87.0932 5.06454ZM92.8424 14.1327C92.206 14.1327 91.6442 13.972 91.157 13.6505C90.6698 13.3257 90.2886 12.8683 90.0135 12.2783C89.7385 11.685 89.6009 10.984 89.6009 10.1753C89.6009 9.37325 89.7385 8.67723 90.0135 8.08727C90.2886 7.49731 90.6715 7.04158 91.162 6.72008C91.6525 6.39859 92.2193 6.23784 92.8623 6.23784C93.3594 6.23784 93.7522 6.3207 94.0405 6.48642C94.3322 6.64882 94.5543 6.83443 94.7067 7.04323C94.8625 7.24873 94.9835 7.41776 95.0697 7.55034H95.1691V3.79181H96.3424V13.9736H95.2089V12.8003H95.0697C94.9835 12.9395 94.8609 13.1152 94.7018 13.3273C94.5427 13.5361 94.3156 13.7234 94.0207 13.8891C93.7257 14.0515 93.3329 14.1327 92.8424 14.1327ZM93.0015 13.0787C93.4721 13.0787 93.8698 12.9561 94.1947 12.7108C94.5195 12.4623 94.7664 12.1192 94.9354 11.6817C95.1045 11.2409 95.189 10.7322 95.189 10.1555C95.189 9.58537 95.1061 9.08656 94.9404 8.659C94.7747 8.22813 94.5294 7.89338 94.2046 7.65474C93.8798 7.41279 93.4787 7.29181 93.0015 7.29181C92.5043 7.29181 92.09 7.41942 91.7586 7.67463C91.4305 7.92652 91.1835 8.26956 91.0178 8.70375C90.8554 9.13462 90.7742 9.61852 90.7742 10.1555C90.7742 10.699 90.8571 11.1929 91.0228 11.637C91.1918 12.0778 91.4404 12.4291 91.7685 12.691C92.1 12.9495 92.5109 13.0787 93.0015 13.0787ZM101.877 16.9964C101.31 16.9964 100.823 16.9234 100.415 16.7776C100.007 16.6351 99.6675 16.4462 99.3957 16.2108C99.1273 15.9788 98.9135 15.7303 98.7544 15.4651L99.6891 14.8089C99.7951 14.9481 99.9294 15.1072 100.092 15.2861C100.254 15.4684 100.476 15.6259 100.758 15.7584C101.043 15.8943 101.416 15.9623 101.877 15.9623C102.493 15.9623 103.002 15.8131 103.403 15.5148C103.804 15.2165 104.004 14.7492 104.004 14.1128V12.5617H103.905C103.819 12.7009 103.696 12.8733 103.537 13.0787C103.381 13.2809 103.156 13.4616 102.861 13.6206C102.569 13.7764 102.175 13.8543 101.678 13.8543C101.061 13.8543 100.508 13.7085 100.017 13.4168C99.53 13.1251 99.1438 12.7009 98.8588 12.1441C98.5771 11.5873 98.4362 10.9111 98.4362 10.1157C98.4362 9.33348 98.5738 8.65237 98.8489 8.07235C99.124 7.48902 99.5068 7.03826 99.9973 6.72008C100.488 6.39859 101.055 6.23784 101.698 6.23784C102.195 6.23784 102.589 6.3207 102.881 6.48642C103.176 6.64882 103.401 6.83443 103.557 7.04323C103.716 7.24873 103.839 7.41776 103.925 7.55034H104.044V6.33727H105.178V14.1924C105.178 14.8486 105.029 15.3823 104.73 15.7932C104.435 16.2075 104.038 16.5108 103.537 16.703C103.04 16.8986 102.486 16.9964 101.877 16.9964ZM101.837 12.8003C102.307 12.8003 102.705 12.6926 103.03 12.4772C103.355 12.2617 103.602 11.9519 103.771 11.5475C103.94 11.1431 104.024 10.6592 104.024 10.0958C104.024 9.5456 103.941 9.06004 103.776 8.63912C103.61 8.21819 103.365 7.88841 103.04 7.64977C102.715 7.41113 102.314 7.29181 101.837 7.29181C101.34 7.29181 100.925 7.41776 100.594 7.66966C100.266 7.92155 100.019 8.25962 99.8531 8.68386C99.6907 9.1081 99.6095 9.57875 99.6095 10.0958C99.6095 10.6261 99.6924 11.0951 99.8581 11.5028C100.027 11.9071 100.276 12.2253 100.604 12.4573C100.935 12.686 101.346 12.8003 101.837 12.8003ZM110.667 14.1327C109.931 14.1327 109.297 13.9703 108.763 13.6455C108.233 13.3174 107.823 12.86 107.535 12.2733C107.25 11.6834 107.107 10.9973 107.107 10.2151C107.107 9.43291 107.25 8.74352 107.535 8.14693C107.823 7.54702 108.224 7.07969 108.738 6.74494C109.255 6.40687 109.858 6.23784 110.548 6.23784C110.946 6.23784 111.338 6.30413 111.726 6.4367C112.114 6.56928 112.467 6.78471 112.785 7.08301C113.103 7.37799 113.357 7.76909 113.546 8.2563C113.735 8.74352 113.829 9.34342 113.829 10.056V10.5532H107.943V9.53897H112.636C112.636 9.1081 112.55 8.72363 112.377 8.38556C112.208 8.0475 111.966 7.78069 111.652 7.58514C111.34 7.38959 110.972 7.29181 110.548 7.29181C110.08 7.29181 109.676 7.40782 109.335 7.63983C108.997 7.86852 108.736 8.16681 108.554 8.53471C108.372 8.90261 108.281 9.29702 108.281 9.71795V10.3941C108.281 10.9708 108.38 11.4597 108.579 11.8607C108.781 12.2584 109.061 12.5617 109.419 12.7705C109.777 12.976 110.193 13.0787 110.667 13.0787C110.975 13.0787 111.254 13.0357 111.502 12.9495C111.754 12.86 111.971 12.7274 112.154 12.5518C112.336 12.3728 112.477 12.1507 112.576 11.8856L113.71 12.2037C113.59 12.5882 113.39 12.9263 113.108 13.218C112.826 13.5063 112.478 13.7317 112.064 13.8941C111.65 14.0532 111.184 14.1327 110.667 14.1327Z" fill="url(#paint2_linear_4102_10185)"/>
<path d="M27.5433 4.88556V3.79181H35.1797V4.88556H31.978V13.9736H30.745V4.88556H27.5433ZM36.2705 13.9736V6.33727H37.404V7.49068H37.4836C37.6228 7.11284 37.8747 6.80626 38.2393 6.57093C38.6038 6.33561 39.0148 6.21795 39.4722 6.21795C39.5584 6.21795 39.6661 6.21961 39.7954 6.22292C39.9246 6.22624 40.0224 6.23121 40.0887 6.23784V7.43102C40.0489 7.42108 39.9578 7.40616 39.8152 7.38627C39.676 7.36307 39.5286 7.35147 39.3728 7.35147C39.0016 7.35147 38.6701 7.42936 38.3785 7.58514C38.0901 7.7376 37.8614 7.94972 37.6924 8.2215C37.5267 8.48997 37.4438 8.79655 37.4438 9.14125V13.9736H36.2705ZM43.8666 14.1526C43.3827 14.1526 42.9436 14.0615 42.5492 13.8792C42.1548 13.6936 41.8416 13.4268 41.6095 13.0787C41.3775 12.7274 41.2615 12.3032 41.2615 11.806C41.2615 11.3685 41.3477 11.0139 41.5201 10.7421C41.6924 10.467 41.9228 10.2516 42.2111 10.0958C42.4995 9.94002 42.8176 9.82401 43.1657 9.74778C43.517 9.66824 43.87 9.60526 44.2246 9.55886C44.6886 9.4992 45.0648 9.45446 45.3532 9.42463C45.6448 9.39148 45.8569 9.3368 45.9895 9.26056C46.1254 9.18433 46.1934 9.05176 46.1934 8.86284V8.82306C46.1934 8.33253 46.0591 7.95138 45.7907 7.6796C45.5255 7.40782 45.1228 7.27193 44.5826 7.27193C44.0224 7.27193 43.5833 7.39456 43.2651 7.63983C42.9469 7.88509 42.7232 8.14693 42.5939 8.42534L41.4803 8.02761C41.6791 7.56359 41.9443 7.20233 42.2757 6.9438C42.6105 6.68197 42.9751 6.49967 43.3695 6.39693C43.7672 6.29087 44.1583 6.23784 44.5428 6.23784C44.788 6.23784 45.0698 6.26767 45.388 6.32733C45.7095 6.38367 46.0193 6.50133 46.3176 6.68031C46.6193 6.85929 46.8695 7.12941 47.0684 7.49068C47.2672 7.85195 47.3666 8.33585 47.3666 8.94238V13.9736H46.1934V12.9395H46.1337C46.0541 13.1053 45.9216 13.2826 45.736 13.4715C45.5504 13.6604 45.3034 13.8212 44.9952 13.9537C44.687 14.0863 44.3108 14.1526 43.8666 14.1526ZM44.0456 13.0986C44.5096 13.0986 44.9007 13.0075 45.2189 12.8252C45.5404 12.6429 45.7824 12.4076 45.9448 12.1192C46.1105 11.8309 46.1934 11.5276 46.1934 11.2094V10.1356C46.1436 10.1952 46.0343 10.2499 45.8652 10.2996C45.6995 10.346 45.5073 10.3875 45.2885 10.4239C45.0731 10.4571 44.8626 10.4869 44.6571 10.5134C44.455 10.5366 44.2909 10.5565 44.1649 10.5731C43.86 10.6128 43.575 10.6775 43.3098 10.767C43.048 10.8531 42.8359 10.984 42.6735 11.1597C42.5144 11.3321 42.4348 11.5674 42.4348 11.8657C42.4348 12.2733 42.5856 12.5816 42.8872 12.7904C43.1922 12.9959 43.5783 13.0986 44.0456 13.0986ZM52.5317 14.1327C51.8953 14.1327 51.3335 13.972 50.8463 13.6505C50.3591 13.3257 49.9779 12.8683 49.7028 12.2783C49.4278 11.685 49.2902 10.984 49.2902 10.1753C49.2902 9.37325 49.4278 8.67723 49.7028 8.08727C49.9779 7.49731 50.3608 7.04158 50.8513 6.72008C51.3418 6.39859 51.9086 6.23784 52.5516 6.23784C53.0487 6.23784 53.4415 6.3207 53.7298 6.48642C54.0215 6.64882 54.2436 6.83443 54.396 7.04323C54.5518 7.24873 54.6728 7.41776 54.759 7.55034H54.8584V3.79181H56.0317V13.9736H54.8982V12.8003H54.759C54.6728 12.9395 54.5501 13.1152 54.3911 13.3273C54.232 13.5361 54.0049 13.7234 53.71 13.8891C53.415 14.0515 53.0222 14.1327 52.5317 14.1327ZM52.6908 13.0787C53.1614 13.0787 53.5591 12.9561 53.884 12.7108C54.2088 12.4623 54.4557 12.1192 54.6247 11.6817C54.7938 11.2409 54.8783 10.7322 54.8783 10.1555C54.8783 9.58537 54.7954 9.08656 54.6297 8.659C54.464 8.22813 54.2187 7.89338 53.8939 7.65474C53.5691 7.41279 53.168 7.29181 52.6908 7.29181C52.1936 7.29181 51.7793 7.41942 51.4479 7.67463C51.1198 7.92652 50.8728 8.26956 50.7071 8.70375C50.5447 9.13462 50.4635 9.61852 50.4635 10.1555C50.4635 10.699 50.5464 11.1929 50.7121 11.637C50.8811 12.0778 51.1297 12.4291 51.4578 12.691C51.7893 12.9495 52.2002 13.0787 52.6908 13.0787ZM61.6852 14.1327C60.9494 14.1327 60.3147 13.9703 59.7811 13.6455C59.2508 13.3174 58.8414 12.86 58.5531 12.2733C58.268 11.6834 58.1255 10.9973 58.1255 10.2151C58.1255 9.43291 58.268 8.74352 58.5531 8.14693C58.8414 7.54702 59.2425 7.07969 59.7562 6.74494C60.2732 6.40687 60.8765 6.23784 61.5659 6.23784C61.9636 6.23784 62.3563 6.30413 62.7441 6.4367C63.1319 6.56928 63.4849 6.78471 63.8031 7.08301C64.1213 7.37799 64.3748 7.76909 64.5637 8.2563C64.7526 8.74352 64.8471 9.34342 64.8471 10.056V10.5532H58.9607V9.53897H63.6539C63.6539 9.1081 63.5678 8.72363 63.3954 8.38556C63.2264 8.0475 62.9844 7.78069 62.6696 7.58514C62.358 7.38959 61.9901 7.29181 61.5659 7.29181C61.0985 7.29181 60.6942 7.40782 60.3528 7.63983C60.0147 7.86852 59.7545 8.16681 59.5723 8.53471C59.39 8.90261 59.2988 9.29702 59.2988 9.71795V10.3941C59.2988 10.9708 59.3982 11.4597 59.5971 11.8607C59.7993 12.2584 60.0794 12.5617 60.4373 12.7705C60.7953 12.976 61.2112 13.0787 61.6852 13.0787C61.9934 13.0787 62.2718 13.0357 62.5204 12.9495C62.7723 12.86 62.9894 12.7274 63.1717 12.5518C63.354 12.3728 63.4948 12.1507 63.5943 11.8856L64.7278 12.2037C64.6085 12.5882 64.408 12.9263 64.1262 13.218C63.8445 13.5063 63.4965 13.7317 63.0822 13.8941C62.6679 14.0532 62.2022 14.1327 61.6852 14.1327ZM70.3713 3.31454L67.0901 15.5049H66.0162L69.2975 3.31454H70.3713ZM72.0612 13.9736V3.79181H75.6209C76.3302 3.79181 76.9152 3.91445 77.3759 4.15971C77.8366 4.40166 78.1796 4.72813 78.405 5.13912C78.6304 5.54679 78.7431 5.9992 78.7431 6.49636C78.7431 6.93386 78.6652 7.29513 78.5094 7.58017C78.3569 7.8652 78.1547 8.09058 77.9029 8.2563C77.6543 8.42202 77.3842 8.54466 77.0925 8.6242V8.72363C77.404 8.74352 77.7172 8.85289 78.0321 9.05176C78.347 9.25062 78.6105 9.53566 78.8226 9.90687C79.0347 10.2781 79.1408 10.7322 79.1408 11.2691C79.1408 11.7795 79.0248 12.2385 78.7928 12.6462C78.5608 13.0539 78.1945 13.377 77.694 13.6157C77.1936 13.8543 76.5423 13.9736 75.7402 13.9736H72.0612ZM73.2942 12.8799H75.7402C76.5456 12.8799 77.1173 12.7241 77.4554 12.4126C77.7968 12.0977 77.9675 11.7165 77.9675 11.2691C77.9675 10.9244 77.8797 10.6062 77.704 10.3145C77.5283 10.0196 77.2781 9.78424 76.9533 9.60858C76.6285 9.4296 76.244 9.34011 75.7999 9.34011H73.2942V12.8799ZM73.2942 8.26625H75.5811C75.9523 8.26625 76.2871 8.19333 76.5854 8.0475C76.887 7.90166 77.1256 7.69617 77.3013 7.43102C77.4803 7.16587 77.5698 6.85431 77.5698 6.49636C77.5698 6.04892 77.414 5.66942 77.1024 5.35787C76.7909 5.043 76.297 4.88556 75.6209 4.88556H73.2942V8.26625ZM81.1476 13.9736V6.33727H82.2811V7.49068H82.3607C82.4999 7.11284 82.7518 6.80626 83.1164 6.57093C83.4809 6.33561 83.8919 6.21795 84.3493 6.21795C84.4355 6.21795 84.5432 6.21961 84.6725 6.22292C84.8017 6.22624 84.8995 6.23121 84.9658 6.23784V7.43102C84.926 7.42108 84.8349 7.40616 84.6924 7.38627C84.5532 7.36307 84.4057 7.35147 84.2499 7.35147C83.8787 7.35147 83.5472 7.42936 83.2556 7.58514C82.9672 7.7376 82.7385 7.94972 82.5695 8.2215C82.4038 8.48997 82.3209 8.79655 82.3209 9.14125V13.9736H81.1476ZM86.4966 13.9736V6.33727H87.6699V13.9736H86.4966ZM87.0932 5.06454C86.8645 5.06454 86.6673 4.98665 86.5016 4.83088C86.3392 4.6751 86.258 4.48784 86.258 4.26909C86.258 4.05034 86.3392 3.86307 86.5016 3.7073C86.6673 3.55152 86.8645 3.47363 87.0932 3.47363C87.3219 3.47363 87.5174 3.55152 87.6798 3.7073C87.8456 3.86307 87.9284 4.05034 87.9284 4.26909C87.9284 4.48784 87.8456 4.6751 87.6798 4.83088C87.5174 4.98665 87.3219 5.06454 87.0932 5.06454ZM92.8424 14.1327C92.206 14.1327 91.6442 13.972 91.157 13.6505C90.6698 13.3257 90.2886 12.8683 90.0135 12.2783C89.7385 11.685 89.6009 10.984 89.6009 10.1753C89.6009 9.37325 89.7385 8.67723 90.0135 8.08727C90.2886 7.49731 90.6715 7.04158 91.162 6.72008C91.6525 6.39859 92.2193 6.23784 92.8623 6.23784C93.3594 6.23784 93.7522 6.3207 94.0405 6.48642C94.3322 6.64882 94.5543 6.83443 94.7067 7.04323C94.8625 7.24873 94.9835 7.41776 95.0697 7.55034H95.1691V3.79181H96.3424V13.9736H95.2089V12.8003H95.0697C94.9835 12.9395 94.8609 13.1152 94.7018 13.3273C94.5427 13.5361 94.3156 13.7234 94.0207 13.8891C93.7257 14.0515 93.3329 14.1327 92.8424 14.1327ZM93.0015 13.0787C93.4721 13.0787 93.8698 12.9561 94.1947 12.7108C94.5195 12.4623 94.7664 12.1192 94.9354 11.6817C95.1045 11.2409 95.189 10.7322 95.189 10.1555C95.189 9.58537 95.1061 9.08656 94.9404 8.659C94.7747 8.22813 94.5294 7.89338 94.2046 7.65474C93.8798 7.41279 93.4787 7.29181 93.0015 7.29181C92.5043 7.29181 92.09 7.41942 91.7586 7.67463C91.4305 7.92652 91.1835 8.26956 91.0178 8.70375C90.8554 9.13462 90.7742 9.61852 90.7742 10.1555C90.7742 10.699 90.8571 11.1929 91.0228 11.637C91.1918 12.0778 91.4404 12.4291 91.7685 12.691C92.1 12.9495 92.5109 13.0787 93.0015 13.0787ZM101.877 16.9964C101.31 16.9964 100.823 16.9234 100.415 16.7776C100.007 16.6351 99.6675 16.4462 99.3957 16.2108C99.1273 15.9788 98.9135 15.7303 98.7544 15.4651L99.6891 14.8089C99.7951 14.9481 99.9294 15.1072 100.092 15.2861C100.254 15.4684 100.476 15.6259 100.758 15.7584C101.043 15.8943 101.416 15.9623 101.877 15.9623C102.493 15.9623 103.002 15.8131 103.403 15.5148C103.804 15.2165 104.004 14.7492 104.004 14.1128V12.5617H103.905C103.819 12.7009 103.696 12.8733 103.537 13.0787C103.381 13.2809 103.156 13.4616 102.861 13.6206C102.569 13.7764 102.175 13.8543 101.678 13.8543C101.061 13.8543 100.508 13.7085 100.017 13.4168C99.53 13.1251 99.1438 12.7009 98.8588 12.1441C98.5771 11.5873 98.4362 10.9111 98.4362 10.1157C98.4362 9.33348 98.5738 8.65237 98.8489 8.07235C99.124 7.48902 99.5068 7.03826 99.9973 6.72008C100.488 6.39859 101.055 6.23784 101.698 6.23784C102.195 6.23784 102.589 6.3207 102.881 6.48642C103.176 6.64882 103.401 6.83443 103.557 7.04323C103.716 7.24873 103.839 7.41776 103.925 7.55034H104.044V6.33727H105.178V14.1924C105.178 14.8486 105.029 15.3823 104.73 15.7932C104.435 16.2075 104.038 16.5108 103.537 16.703C103.04 16.8986 102.486 16.9964 101.877 16.9964ZM101.837 12.8003C102.307 12.8003 102.705 12.6926 103.03 12.4772C103.355 12.2617 103.602 11.9519 103.771 11.5475C103.94 11.1431 104.024 10.6592 104.024 10.0958C104.024 9.5456 103.941 9.06004 103.776 8.63912C103.61 8.21819 103.365 7.88841 103.04 7.64977C102.715 7.41113 102.314 7.29181 101.837 7.29181C101.34 7.29181 100.925 7.41776 100.594 7.66966C100.266 7.92155 100.019 8.25962 99.8531 8.68386C99.6907 9.1081 99.6095 9.57875 99.6095 10.0958C99.6095 10.6261 99.6924 11.0951 99.8581 11.5028C100.027 11.9071 100.276 12.2253 100.604 12.4573C100.935 12.686 101.346 12.8003 101.837 12.8003ZM110.667 14.1327C109.931 14.1327 109.297 13.9703 108.763 13.6455C108.233 13.3174 107.823 12.86 107.535 12.2733C107.25 11.6834 107.107 10.9973 107.107 10.2151C107.107 9.43291 107.25 8.74352 107.535 8.14693C107.823 7.54702 108.224 7.07969 108.738 6.74494C109.255 6.40687 109.858 6.23784 110.548 6.23784C110.946 6.23784 111.338 6.30413 111.726 6.4367C112.114 6.56928 112.467 6.78471 112.785 7.08301C113.103 7.37799 113.357 7.76909 113.546 8.2563C113.735 8.74352 113.829 9.34342 113.829 10.056V10.5532H107.943V9.53897H112.636C112.636 9.1081 112.55 8.72363 112.377 8.38556C112.208 8.0475 111.966 7.78069 111.652 7.58514C111.34 7.38959 110.972 7.29181 110.548 7.29181C110.08 7.29181 109.676 7.40782 109.335 7.63983C108.997 7.86852 108.736 8.16681 108.554 8.53471C108.372 8.90261 108.281 9.29702 108.281 9.71795V10.3941C108.281 10.9708 108.38 11.4597 108.579 11.8607C108.781 12.2584 109.061 12.5617 109.419 12.7705C109.777 12.976 110.193 13.0787 110.667 13.0787C110.975 13.0787 111.254 13.0357 111.502 12.9495C111.754 12.86 111.971 12.7274 112.154 12.5518C112.336 12.3728 112.477 12.1507 112.576 11.8856L113.71 12.2037C113.59 12.5882 113.39 12.9263 113.108 13.218C112.826 13.5063 112.478 13.7317 112.064 13.8941C111.65 14.0532 111.184 14.1327 110.667 14.1327Z" fill="black" fill-opacity="0.2"/>
<defs>
<linearGradient id="paint0_linear_4102_10185" x1="20.2531" y1="3.79551" x2="-7.50606" y2="3.71191" gradientUnits="userSpaceOnUse">
<stop stop-color="#2CFFE4"/>
<stop offset="1" stop-color="#A45EFF"/>
</linearGradient>
<linearGradient id="paint1_linear_4102_10185" x1="-0.909335" y1="16.0741" x2="26.8498" y2="16.1577" gradientUnits="userSpaceOnUse">
<stop stop-color="#2CFFE4"/>
<stop offset="1" stop-color="#A45EFF"/>
</linearGradient>
<linearGradient id="paint2_linear_4102_10185" x1="131.553" y1="7.53294" x2="-27.6417" y2="6.14589" gradientUnits="userSpaceOnUse">
<stop stop-color="#2CFFE4"/>
<stop offset="1" stop-color="#A45EFF"/>
</linearGradient>
</defs>
</svg>
