<svg width="70" height="70" viewBox="0 0 70 70" fill="none" xmlns="http://www.w3.org/2000/svg">
<path d="M35 70C54.33 70 70 54.33 70 35C70 15.67 54.33 0 35 0C15.67 0 0 15.67 0 35C0 54.33 15.67 70 35 70Z" fill="#0052FF"/>
<path d="M35.2939 24.7345C39.4146 24.7345 42.6836 27.2761 43.925 31.0557H52.2266C50.7227 22.9749 44.0556 17.5 35.3603 17.5C25.4857 17.5 17.7734 24.9956 17.7734 35.0335C17.7734 45.0714 25.293 52.5 35.3603 52.5C43.8607 52.5 50.6604 47.0251 52.1657 38.8773H43.9243C42.7472 42.6576 39.481 45.2655 35.3575 45.2655C29.668 45.2655 25.6806 40.898 25.6806 35.0335C25.6833 29.102 29.6064 24.7345 35.2939 24.7345Z" fill="white"/>
</svg>
