<svg width="15" height="18" viewBox="0 0 15 18" fill="none" xmlns="http://www.w3.org/2000/svg">
<g filter="url(#filter0_d_3956_17869)">
<path d="M5.56475 13.9722C5.35925 13.7058 5.10236 13.1655 4.65465 12.4921C4.39776 12.122 3.76656 11.419 3.57573 11.0563C3.43817 10.836 3.39825 10.5676 3.46564 10.3163C3.58084 9.83835 4.03046 9.52131 4.5152 9.57621C4.8901 9.65215 5.23464 9.83743 5.50604 10.1091C5.69553 10.289 5.86984 10.4846 6.02715 10.6937C6.14458 10.8417 6.17394 10.9009 6.30605 11.0711C6.43816 11.2414 6.52624 11.4116 6.46018 11.16C6.4088 10.7899 6.32073 10.1683 6.19596 9.61321C6.10054 9.19137 6.07852 9.12476 5.99045 8.80653C5.90237 8.4883 5.851 8.22188 5.75558 7.85924C5.66836 7.50295 5.59977 7.14229 5.55007 6.77874C5.45756 6.31375 5.52487 5.83087 5.7409 5.40961C5.99734 5.1664 6.37352 5.10221 6.69505 5.24679C7.01842 5.48756 7.25953 5.82379 7.38496 6.20888C7.57731 6.68282 7.70568 7.18064 7.76662 7.68903C7.88406 8.4291 8.11158 9.5096 8.11892 9.73162C8.11892 9.45779 8.06754 8.88054 8.11892 8.62151C8.16982 8.35148 8.35596 8.12738 8.61067 8.02946C8.82925 7.96183 9.06047 7.94663 9.28591 7.98505C9.51346 8.03302 9.71503 8.165 9.85106 8.35509C10.0211 8.78684 10.1155 9.2451 10.13 9.70942C10.1496 9.30281 10.2186 8.90017 10.3355 8.5105C10.4581 8.33625 10.6372 8.21062 10.8419 8.15527C11.0845 8.11054 11.3332 8.11054 11.5759 8.15527C11.7748 8.22234 11.9489 8.34881 12.0749 8.5179C12.2304 8.9104 12.3245 9.32483 12.3538 9.74642C12.3538 9.85003 12.4052 9.45779 12.5667 9.19877C12.6506 8.94759 12.861 8.76062 13.1187 8.70831C13.3764 8.65599 13.6422 8.74627 13.816 8.94513C13.9898 9.14399 14.0451 9.42123 13.9612 9.67241C13.9612 10.1535 13.9612 10.1313 13.9612 10.4569C13.9612 10.7825 13.9612 11.0711 13.9612 11.345C13.9345 11.778 13.8756 12.2085 13.7851 12.6327C13.6573 13.008 13.4796 13.364 13.2566 13.691C12.9002 14.0906 12.6058 14.5422 12.3832 15.0305C12.328 15.2731 12.3033 15.5218 12.3098 15.7706C12.3091 16.0005 12.3387 16.2295 12.3979 16.4515C12.0978 16.4835 11.7952 16.4835 11.4951 16.4515C11.2089 16.4071 10.8566 15.8298 10.7612 15.6522C10.714 15.5568 10.6173 15.4966 10.5116 15.4966C10.4059 15.4966 10.3093 15.5568 10.2621 15.6522C10.1006 15.9334 9.74096 16.4441 9.49142 16.4737C8.99967 16.5329 7.98681 16.4737 7.1868 16.4737C7.1868 16.4737 7.31891 15.7336 7.01799 15.4672C6.71706 15.2007 6.4088 14.8899 6.18128 14.6827L5.56475 13.9722Z" fill="white"/>
<path fill-rule="evenodd" clip-rule="evenodd" d="M5.56475 13.9722C5.35925 13.7058 5.10236 13.1655 4.65465 12.4921C4.39776 12.122 3.76656 11.419 3.57573 11.0563C3.43817 10.836 3.39825 10.5676 3.46564 10.3163C3.58084 9.83835 4.03046 9.5213 4.5152 9.57621C4.8901 9.65215 5.23464 9.83743 5.50604 10.1091C5.69553 10.289 5.86984 10.4846 6.02715 10.6937C6.14458 10.8417 6.17394 10.9009 6.30605 11.0711C6.43816 11.2414 6.52624 11.4116 6.46018 11.16C6.4088 10.7899 6.32073 10.1683 6.19596 9.61321C6.10054 9.19137 6.07852 9.12476 5.99045 8.80653C5.90237 8.4883 5.851 8.22188 5.75558 7.85924C5.66836 7.50295 5.59977 7.14229 5.55007 6.77874C5.45756 6.31375 5.52487 5.83087 5.7409 5.40961C5.99734 5.1664 6.37352 5.10221 6.69505 5.24679C7.01842 5.48756 7.25953 5.82379 7.38496 6.20888C7.57731 6.68282 7.70567 7.18064 7.76662 7.68903C7.88405 8.4291 8.11158 9.5096 8.11892 9.73162C8.11892 9.45779 8.06754 8.88054 8.11892 8.62151C8.16982 8.35148 8.35596 8.12738 8.61067 8.02946C8.82925 7.96183 9.06047 7.94663 9.28591 7.98505C9.51346 8.03302 9.71503 8.165 9.85106 8.35509C10.0211 8.78684 10.1155 9.2451 10.13 9.70942C10.1496 9.30281 10.2186 8.90017 10.3355 8.5105C10.4581 8.33625 10.6372 8.21062 10.8419 8.15527C11.0845 8.11054 11.3332 8.11054 11.5759 8.15527C11.7748 8.22234 11.9489 8.34881 12.0749 8.5179C12.2304 8.9104 12.3245 9.32483 12.3538 9.74642C12.3538 9.85003 12.4052 9.45779 12.5667 9.19877C12.6506 8.94759 12.861 8.76062 13.1187 8.70831C13.3764 8.65599 13.6422 8.74627 13.816 8.94513C13.9898 9.14399 14.0451 9.42123 13.9612 9.67241C13.9612 10.1535 13.9612 10.1313 13.9612 10.4569C13.9612 10.7825 13.9612 11.0711 13.9612 11.345C13.9345 11.778 13.8756 12.2085 13.7851 12.6327C13.6573 13.008 13.4796 13.364 13.2566 13.691C12.9002 14.0906 12.6058 14.5422 12.3832 15.0305C12.328 15.2731 12.3033 15.5218 12.3098 15.7706C12.3091 16.0005 12.3387 16.2295 12.3979 16.4515C12.0978 16.4835 11.7952 16.4835 11.4951 16.4515C11.2089 16.4071 10.8566 15.8298 10.7612 15.6522C10.714 15.5568 10.6173 15.4966 10.5116 15.4966C10.4059 15.4966 10.3093 15.5568 10.2621 15.6522C10.1006 15.9334 9.74096 16.4441 9.49142 16.4737C8.99967 16.5329 7.98681 16.4737 7.1868 16.4737C7.1868 16.4737 7.31891 15.7336 7.01799 15.4672C6.71706 15.2007 6.4088 14.8899 6.18128 14.6827L5.56475 13.9722Z" stroke="#808080" stroke-width="0.5625" stroke-linecap="round" stroke-linejoin="round"/>
<path d="M11.7847 14.3761V11.8215C11.7847 11.6686 11.6615 11.5447 11.5095 11.5447C11.3576 11.5447 11.2344 11.6686 11.2344 11.8215V14.3761C11.2344 14.529 11.3576 14.653 11.5095 14.653C11.6615 14.653 11.7847 14.529 11.7847 14.3761Z" fill="#808080"/>
<path d="M10.3306 14.3752L10.3159 11.8193C10.3151 11.6668 10.1912 11.5438 10.0392 11.5447C9.88723 11.5456 9.76475 11.6699 9.76563 11.8225L9.7803 14.3784C9.78118 14.5309 9.90508 14.6538 10.057 14.653C10.209 14.6521 10.3315 14.5277 10.3306 14.3752Z" fill="#808080"/>
<path d="M8.30469 11.8252L8.31937 14.3757C8.32025 14.5298 8.44416 14.6539 8.59612 14.653C8.74808 14.6521 8.87055 14.5265 8.86966 14.3725L8.85499 11.8219C8.8541 11.6679 8.7302 11.5438 8.57824 11.5447C8.42628 11.5456 8.30381 11.6712 8.30469 11.8252Z" fill="#808080"/>
</g>
<path d="M4.02814 5.43004C3.89452 5.09069 3.84596 4.72335 3.88676 4.36056C3.92757 3.99777 4.05647 3.65073 4.26206 3.35017C4.46765 3.04961 4.74358 2.80482 5.06541 2.63747C5.38724 2.47013 5.74503 2.38539 6.10709 2.39078C6.46915 2.39617 6.8243 2.4915 7.14109 2.66835C7.45788 2.8452 7.72653 3.09809 7.92324 3.40463C8.11995 3.71117 8.23864 4.0619 8.26882 4.42575C8.29899 4.78959 8.2397 5.15533 8.09622 5.49055L7.44802 5.20846C7.5455 4.98072 7.58578 4.73225 7.56528 4.48507C7.54478 4.23788 7.46414 3.99961 7.33051 3.79135C7.19687 3.5831 7.01436 3.41129 6.79914 3.29115C6.58392 3.171 6.34264 3.10623 6.09667 3.10257C5.8507 3.09891 5.60763 3.15648 5.38899 3.27017C5.17035 3.38386 4.98289 3.55016 4.84322 3.75435C4.70355 3.95854 4.61598 4.19431 4.58825 4.44078C4.56053 4.68725 4.59352 4.93681 4.6843 5.16735L4.02814 5.43004Z" fill="#E9E9E9"/>
<path d="M2.0697 6.40549C1.81144 5.74962 1.71759 5.03964 1.79645 4.33845C1.87532 3.63726 2.12446 2.96651 2.52182 2.3856C2.91918 1.8047 3.45249 1.33157 4.0745 1.00813C4.69651 0.684688 5.38804 0.520919 6.08781 0.531329C6.78759 0.541738 7.47402 0.726005 8.0863 1.06781C8.69858 1.40961 9.21781 1.89839 9.598 2.49086C9.97819 3.08334 10.2076 3.76121 10.2659 4.46444C10.3242 5.16767 10.2097 5.87454 9.93233 6.52246L9.34916 6.26866C9.5851 5.71745 9.68258 5.11608 9.63297 4.51781C9.58336 3.91953 9.38819 3.34283 9.06474 2.83879C8.74129 2.33474 8.29955 1.91891 7.77866 1.62812C7.25776 1.33733 6.67378 1.18057 6.07844 1.17171C5.48311 1.16286 4.89479 1.30218 4.36562 1.57735C3.83644 1.85251 3.38273 2.25503 3.04468 2.74923C2.70662 3.24344 2.49466 3.81409 2.42757 4.41062C2.36047 5.00716 2.44032 5.61117 2.66003 6.16916L2.0697 6.40549Z" fill="#E9E9E9"/>
<defs>
<filter id="filter0_d_3956_17869" x="2.55234" y="4.88916" width="12.3289" height="13.2421" filterUnits="userSpaceOnUse" color-interpolation-filters="sRGB">
<feFlood flood-opacity="0" result="BackgroundImageFix"/>
<feColorMatrix in="SourceAlpha" type="matrix" values="0 0 0 0 0 0 0 0 0 0 0 0 0 0 0 0 0 0 127 0" result="hardAlpha"/>
<feOffset dy="0.75"/>
<feGaussianBlur stdDeviation="0.3"/>
<feColorMatrix type="matrix" values="0 0 0 0 0 0 0 0 0 0 0 0 0 0 0 0 0 0 0.5 0"/>
<feBlend mode="normal" in2="BackgroundImageFix" result="effect1_dropShadow_3956_17869"/>
<feBlend mode="normal" in="SourceGraphic" in2="effect1_dropShadow_3956_17869" result="shape"/>
</filter>
</defs>
</svg>
