<svg width="75" height="14" viewBox="0 0 75 14" fill="none" xmlns="http://www.w3.org/2000/svg">
<circle cx="7" cy="7" r="6.5" stroke="#E9E9E9"/>
<circle cx="7" cy="7" r="6.5" stroke="url(#paint0_linear_4268_19766)"/>
<circle cx="7" cy="7" r="6.5" stroke="black" stroke-opacity="0.2"/>
<path d="M3 8.07692L4.90476 10L11 5" stroke="url(#paint1_linear_4268_19766)" stroke-linecap="round" stroke-linejoin="round"/>
<path d="M3 8.07692L4.90476 10L11 5" stroke="black" stroke-opacity="0.2" stroke-linecap="round" stroke-linejoin="round"/>
<path d="M19.6548 1.81818V12H18.1186V1.81818H19.6548ZM23.3992 7.46591V12H21.9127V4.36364H23.3396V5.60653H23.434C23.6097 5.20218 23.8848 4.87737 24.2593 4.6321C24.6372 4.38684 25.1128 4.2642 25.6862 4.2642C26.2065 4.2642 26.6623 4.37358 27.0534 4.59233C27.4445 4.80777 27.7477 5.12926 27.9632 5.55682C28.1786 5.98437 28.2863 6.51302 28.2863 7.14276V12H26.7998V7.32173C26.7998 6.76823 26.6556 6.3357 26.3673 6.02415C26.0789 5.70928 25.6829 5.55185 25.1791 5.55185C24.8344 5.55185 24.5278 5.62642 24.2593 5.77557C23.9942 5.92472 23.7837 6.14347 23.6279 6.43182C23.4755 6.71686 23.3992 7.06155 23.3992 7.46591ZM36.1422 6.22798L34.7949 6.46662C34.7386 6.29427 34.6491 6.13021 34.5264 5.97443C34.4071 5.81865 34.2447 5.69105 34.0392 5.59162C33.8337 5.49219 33.5769 5.44247 33.2686 5.44247C32.8477 5.44247 32.4964 5.53693 32.2147 5.72585C31.9329 5.91146 31.7921 6.15175 31.7921 6.44673C31.7921 6.70194 31.8865 6.90743 32.0755 7.06321C32.2644 7.21899 32.5693 7.34659 32.9902 7.44602L34.2033 7.72443C34.9059 7.88684 35.4296 8.13707 35.7743 8.47514C36.119 8.81321 36.2914 9.25237 36.2914 9.79261C36.2914 10.25 36.1588 10.6577 35.8936 11.0156C35.6318 11.3703 35.2656 11.6487 34.7949 11.8509C34.3276 12.053 33.7857 12.1541 33.1692 12.1541C32.3141 12.1541 31.6164 11.9718 31.0762 11.6072C30.5359 11.2393 30.2045 10.7173 30.0818 10.0412L31.5186 9.82244C31.6081 10.197 31.7921 10.4804 32.0705 10.6726C32.3489 10.8615 32.7118 10.956 33.1593 10.956C33.6465 10.956 34.0359 10.8549 34.3276 10.6527C34.6193 10.4472 34.7651 10.197 34.7651 9.90199C34.7651 9.66335 34.6756 9.46283 34.4966 9.30043C34.321 9.13802 34.0508 9.01539 33.6862 8.93253L32.3936 8.64915C31.681 8.48674 31.1541 8.22822 30.8127 7.87358C30.4746 7.51894 30.3056 7.06984 30.3056 6.52628C30.3056 6.07552 30.4315 5.68111 30.6834 5.34304C30.9353 5.00497 31.2833 4.74148 31.7274 4.55256C32.1716 4.36032 32.6803 4.2642 33.2537 4.2642C34.079 4.2642 34.7286 4.44318 35.2026 4.80114C35.6765 5.15578 35.9898 5.63139 36.1422 6.22798ZM41.6304 4.36364V5.55682H37.4592V4.36364H41.6304ZM38.5778 2.53409H40.0644V9.75781C40.0644 10.0462 40.1074 10.2633 40.1936 10.4091C40.2798 10.5516 40.3908 10.6494 40.5267 10.7024C40.6659 10.7521 40.8167 10.777 40.9791 10.777C41.0984 10.777 41.2028 10.7687 41.2923 10.7521C41.3818 10.7356 41.4514 10.7223 41.5011 10.7124L41.7696 11.9403C41.6834 11.9735 41.5608 12.0066 41.4017 12.0398C41.2426 12.0762 41.0438 12.0961 40.8051 12.0994C40.414 12.1061 40.0494 12.0365 39.7114 11.8906C39.3733 11.7448 39.0999 11.5194 38.8911 11.2145C38.6823 10.9096 38.5778 10.5268 38.5778 10.0661V2.53409ZM45.6371 12.169C45.1532 12.169 44.7157 12.0795 44.3246 11.9006C43.9335 11.7183 43.6236 11.4548 43.3949 11.1101C43.1695 10.7654 43.0568 10.3428 43.0568 9.84233C43.0568 9.41146 43.1397 9.05682 43.3054 8.77841C43.4711 8.5 43.6948 8.27959 43.9765 8.11719C44.2583 7.95478 44.5731 7.83215 44.9212 7.74929C45.2692 7.66643 45.6238 7.60346 45.9851 7.56037C46.4425 7.50734 46.8137 7.46425 47.0987 7.43111C47.3837 7.39465 47.5909 7.33665 47.7202 7.2571C47.8494 7.17756 47.914 7.0483 47.914 6.86932V6.83452C47.914 6.40033 47.7914 6.06392 47.5462 5.82528C47.3042 5.58665 46.9429 5.46733 46.4623 5.46733C45.9619 5.46733 45.5675 5.57836 45.2791 5.80043C44.9941 6.01918 44.7969 6.26278 44.6875 6.53125L43.2905 6.21307C43.4562 5.74905 43.6981 5.37453 44.0163 5.08949C44.3378 4.80114 44.7074 4.59233 45.125 4.46307C45.5426 4.33049 45.9818 4.2642 46.4425 4.2642C46.7474 4.2642 47.0705 4.30066 47.4119 4.37358C47.7566 4.44318 48.0781 4.57244 48.3764 4.76136C48.678 4.95028 48.9249 5.22041 49.1172 5.57173C49.3094 5.91974 49.4055 6.37216 49.4055 6.92898V12H47.9538V10.956H47.8942C47.798 11.1482 47.6539 11.3371 47.4616 11.5227C47.2694 11.7083 47.0225 11.8625 46.7209 11.9851C46.4193 12.1077 46.058 12.169 45.6371 12.169ZM45.9602 10.9759C46.3712 10.9759 46.7225 10.8946 47.0142 10.7322C47.3092 10.5698 47.5329 10.3577 47.6854 10.0959C47.8411 9.83073 47.919 9.54735 47.919 9.24574V8.26136C47.866 8.31439 47.7632 8.36411 47.6108 8.41051C47.4616 8.4536 47.2909 8.49171 47.0987 8.52486C46.9065 8.55469 46.7192 8.58286 46.5369 8.60938C46.3546 8.63258 46.2022 8.65246 46.0795 8.66903C45.7912 8.70549 45.5277 8.76681 45.289 8.85298C45.0537 8.93916 44.8648 9.06345 44.7223 9.22585C44.5831 9.38494 44.5135 9.59706 44.5135 9.86222C44.5135 10.2301 44.6494 10.5085 44.9212 10.6974C45.1929 10.883 45.5393 10.9759 45.9602 10.9759ZM53.012 1.81818V12H51.5255V1.81818H53.012ZM56.6383 1.81818V12H55.1518V1.81818H56.6383ZM62.0693 12.1541C61.3169 12.1541 60.669 11.9934 60.1254 11.6719C59.5852 11.3471 59.1676 10.8913 58.8726 10.3047C58.5809 9.71473 58.4351 9.02367 58.4351 8.23153C58.4351 7.44934 58.5809 6.75994 58.8726 6.16335C59.1676 5.56676 59.5785 5.10109 60.1055 4.76633C60.6358 4.43158 61.2556 4.2642 61.9649 4.2642C62.3958 4.2642 62.8134 4.33546 63.2177 4.47798C63.6221 4.6205 63.985 4.84422 64.3065 5.14915C64.628 5.45407 64.8816 5.85014 65.0672 6.33736C65.2528 6.82126 65.3456 7.40956 65.3456 8.10227V8.62926H59.2753V7.51562H63.8889C63.8889 7.12453 63.8094 6.77817 63.6503 6.47656C63.4912 6.17164 63.2675 5.93134 62.9791 5.75568C62.6941 5.58002 62.3593 5.49219 61.9749 5.49219C61.5572 5.49219 61.1927 5.59493 60.8811 5.80043C60.5729 6.0026 60.3342 6.26776 60.1652 6.59588C59.9995 6.92069 59.9166 7.27367 59.9166 7.65483V8.52486C59.9166 9.03527 60.0061 9.46946 60.1851 9.82741C60.3674 10.1854 60.6209 10.4588 60.9457 10.6477C61.2705 10.8333 61.65 10.9261 62.0842 10.9261C62.3659 10.9261 62.6228 10.8864 62.8548 10.8068C63.0868 10.724 63.2874 10.6013 63.4564 10.4389C63.6254 10.2765 63.7547 10.076 63.8442 9.83736L65.2511 10.0909C65.1384 10.5052 64.9363 10.8681 64.6446 11.1797C64.3562 11.4879 63.9933 11.7282 63.5558 11.9006C63.1216 12.0696 62.6261 12.1541 62.0693 12.1541ZM69.9936 12.1491C69.3771 12.1491 68.8269 11.9917 68.343 11.6768C67.8624 11.3587 67.4846 10.9062 67.2095 10.3196C66.9377 9.72964 66.8018 9.02202 66.8018 8.19673C66.8018 7.37145 66.9394 6.66548 67.2145 6.07884C67.4929 5.49219 67.874 5.04309 68.3579 4.73153C68.8418 4.41998 69.3904 4.2642 70.0035 4.2642C70.4775 4.2642 70.8586 4.34375 71.147 4.50284C71.4387 4.65862 71.664 4.84091 71.8231 5.04972C71.9855 5.25852 72.1115 5.44247 72.201 5.60156H72.2905V1.81818H73.777V12H72.3253V10.8118H72.201C72.1115 10.9742 71.9822 11.1598 71.8132 11.3686C71.6475 11.5774 71.4188 11.7597 71.1271 11.9155C70.8354 12.0713 70.4576 12.1491 69.9936 12.1491ZM70.3217 10.8814C70.7493 10.8814 71.1105 10.7687 71.4055 10.5433C71.7038 10.3146 71.9292 9.99811 72.0816 9.59375C72.2374 9.18939 72.3153 8.71875 72.3153 8.18182C72.3153 7.65151 72.2391 7.1875 72.0866 6.78977C71.9342 6.39205 71.7104 6.08215 71.4155 5.86009C71.1205 5.63802 70.7559 5.52699 70.3217 5.52699C69.8743 5.52699 69.5014 5.64299 69.2031 5.875C68.9048 6.10701 68.6794 6.42353 68.527 6.82457C68.3778 7.22562 68.3032 7.67803 68.3032 8.18182C68.3032 8.69223 68.3795 9.15128 68.5319 9.55895C68.6844 9.96662 68.9098 10.2898 69.2081 10.5284C69.5097 10.7637 69.8809 10.8814 70.3217 10.8814Z" fill="#808080"/>
<path d="M19.6548 1.81818V12H18.1186V1.81818H19.6548ZM23.3992 7.46591V12H21.9127V4.36364H23.3396V5.60653H23.434C23.6097 5.20218 23.8848 4.87737 24.2593 4.6321C24.6372 4.38684 25.1128 4.2642 25.6862 4.2642C26.2065 4.2642 26.6623 4.37358 27.0534 4.59233C27.4445 4.80777 27.7477 5.12926 27.9632 5.55682C28.1786 5.98437 28.2863 6.51302 28.2863 7.14276V12H26.7998V7.32173C26.7998 6.76823 26.6556 6.3357 26.3673 6.02415C26.0789 5.70928 25.6829 5.55185 25.1791 5.55185C24.8344 5.55185 24.5278 5.62642 24.2593 5.77557C23.9942 5.92472 23.7837 6.14347 23.6279 6.43182C23.4755 6.71686 23.3992 7.06155 23.3992 7.46591ZM36.1422 6.22798L34.7949 6.46662C34.7386 6.29427 34.6491 6.13021 34.5264 5.97443C34.4071 5.81865 34.2447 5.69105 34.0392 5.59162C33.8337 5.49219 33.5769 5.44247 33.2686 5.44247C32.8477 5.44247 32.4964 5.53693 32.2147 5.72585C31.9329 5.91146 31.7921 6.15175 31.7921 6.44673C31.7921 6.70194 31.8865 6.90743 32.0755 7.06321C32.2644 7.21899 32.5693 7.34659 32.9902 7.44602L34.2033 7.72443C34.9059 7.88684 35.4296 8.13707 35.7743 8.47514C36.119 8.81321 36.2914 9.25237 36.2914 9.79261C36.2914 10.25 36.1588 10.6577 35.8936 11.0156C35.6318 11.3703 35.2656 11.6487 34.7949 11.8509C34.3276 12.053 33.7857 12.1541 33.1692 12.1541C32.3141 12.1541 31.6164 11.9718 31.0762 11.6072C30.5359 11.2393 30.2045 10.7173 30.0818 10.0412L31.5186 9.82244C31.6081 10.197 31.7921 10.4804 32.0705 10.6726C32.3489 10.8615 32.7118 10.956 33.1593 10.956C33.6465 10.956 34.0359 10.8549 34.3276 10.6527C34.6193 10.4472 34.7651 10.197 34.7651 9.90199C34.7651 9.66335 34.6756 9.46283 34.4966 9.30043C34.321 9.13802 34.0508 9.01539 33.6862 8.93253L32.3936 8.64915C31.681 8.48674 31.1541 8.22822 30.8127 7.87358C30.4746 7.51894 30.3056 7.06984 30.3056 6.52628C30.3056 6.07552 30.4315 5.68111 30.6834 5.34304C30.9353 5.00497 31.2833 4.74148 31.7274 4.55256C32.1716 4.36032 32.6803 4.2642 33.2537 4.2642C34.079 4.2642 34.7286 4.44318 35.2026 4.80114C35.6765 5.15578 35.9898 5.63139 36.1422 6.22798ZM41.6304 4.36364V5.55682H37.4592V4.36364H41.6304ZM38.5778 2.53409H40.0644V9.75781C40.0644 10.0462 40.1074 10.2633 40.1936 10.4091C40.2798 10.5516 40.3908 10.6494 40.5267 10.7024C40.6659 10.7521 40.8167 10.777 40.9791 10.777C41.0984 10.777 41.2028 10.7687 41.2923 10.7521C41.3818 10.7356 41.4514 10.7223 41.5011 10.7124L41.7696 11.9403C41.6834 11.9735 41.5608 12.0066 41.4017 12.0398C41.2426 12.0762 41.0438 12.0961 40.8051 12.0994C40.414 12.1061 40.0494 12.0365 39.7114 11.8906C39.3733 11.7448 39.0999 11.5194 38.8911 11.2145C38.6823 10.9096 38.5778 10.5268 38.5778 10.0661V2.53409ZM45.6371 12.169C45.1532 12.169 44.7157 12.0795 44.3246 11.9006C43.9335 11.7183 43.6236 11.4548 43.3949 11.1101C43.1695 10.7654 43.0568 10.3428 43.0568 9.84233C43.0568 9.41146 43.1397 9.05682 43.3054 8.77841C43.4711 8.5 43.6948 8.27959 43.9765 8.11719C44.2583 7.95478 44.5731 7.83215 44.9212 7.74929C45.2692 7.66643 45.6238 7.60346 45.9851 7.56037C46.4425 7.50734 46.8137 7.46425 47.0987 7.43111C47.3837 7.39465 47.5909 7.33665 47.7202 7.2571C47.8494 7.17756 47.914 7.0483 47.914 6.86932V6.83452C47.914 6.40033 47.7914 6.06392 47.5462 5.82528C47.3042 5.58665 46.9429 5.46733 46.4623 5.46733C45.9619 5.46733 45.5675 5.57836 45.2791 5.80043C44.9941 6.01918 44.7969 6.26278 44.6875 6.53125L43.2905 6.21307C43.4562 5.74905 43.6981 5.37453 44.0163 5.08949C44.3378 4.80114 44.7074 4.59233 45.125 4.46307C45.5426 4.33049 45.9818 4.2642 46.4425 4.2642C46.7474 4.2642 47.0705 4.30066 47.4119 4.37358C47.7566 4.44318 48.0781 4.57244 48.3764 4.76136C48.678 4.95028 48.9249 5.22041 49.1172 5.57173C49.3094 5.91974 49.4055 6.37216 49.4055 6.92898V12H47.9538V10.956H47.8942C47.798 11.1482 47.6539 11.3371 47.4616 11.5227C47.2694 11.7083 47.0225 11.8625 46.7209 11.9851C46.4193 12.1077 46.058 12.169 45.6371 12.169ZM45.9602 10.9759C46.3712 10.9759 46.7225 10.8946 47.0142 10.7322C47.3092 10.5698 47.5329 10.3577 47.6854 10.0959C47.8411 9.83073 47.919 9.54735 47.919 9.24574V8.26136C47.866 8.31439 47.7632 8.36411 47.6108 8.41051C47.4616 8.4536 47.2909 8.49171 47.0987 8.52486C46.9065 8.55469 46.7192 8.58286 46.5369 8.60938C46.3546 8.63258 46.2022 8.65246 46.0795 8.66903C45.7912 8.70549 45.5277 8.76681 45.289 8.85298C45.0537 8.93916 44.8648 9.06345 44.7223 9.22585C44.5831 9.38494 44.5135 9.59706 44.5135 9.86222C44.5135 10.2301 44.6494 10.5085 44.9212 10.6974C45.1929 10.883 45.5393 10.9759 45.9602 10.9759ZM53.012 1.81818V12H51.5255V1.81818H53.012ZM56.6383 1.81818V12H55.1518V1.81818H56.6383ZM62.0693 12.1541C61.3169 12.1541 60.669 11.9934 60.1254 11.6719C59.5852 11.3471 59.1676 10.8913 58.8726 10.3047C58.5809 9.71473 58.4351 9.02367 58.4351 8.23153C58.4351 7.44934 58.5809 6.75994 58.8726 6.16335C59.1676 5.56676 59.5785 5.10109 60.1055 4.76633C60.6358 4.43158 61.2556 4.2642 61.9649 4.2642C62.3958 4.2642 62.8134 4.33546 63.2177 4.47798C63.6221 4.6205 63.985 4.84422 64.3065 5.14915C64.628 5.45407 64.8816 5.85014 65.0672 6.33736C65.2528 6.82126 65.3456 7.40956 65.3456 8.10227V8.62926H59.2753V7.51562H63.8889C63.8889 7.12453 63.8094 6.77817 63.6503 6.47656C63.4912 6.17164 63.2675 5.93134 62.9791 5.75568C62.6941 5.58002 62.3593 5.49219 61.9749 5.49219C61.5572 5.49219 61.1927 5.59493 60.8811 5.80043C60.5729 6.0026 60.3342 6.26776 60.1652 6.59588C59.9995 6.92069 59.9166 7.27367 59.9166 7.65483V8.52486C59.9166 9.03527 60.0061 9.46946 60.1851 9.82741C60.3674 10.1854 60.6209 10.4588 60.9457 10.6477C61.2705 10.8333 61.65 10.9261 62.0842 10.9261C62.3659 10.9261 62.6228 10.8864 62.8548 10.8068C63.0868 10.724 63.2874 10.6013 63.4564 10.4389C63.6254 10.2765 63.7547 10.076 63.8442 9.83736L65.2511 10.0909C65.1384 10.5052 64.9363 10.8681 64.6446 11.1797C64.3562 11.4879 63.9933 11.7282 63.5558 11.9006C63.1216 12.0696 62.6261 12.1541 62.0693 12.1541ZM69.9936 12.1491C69.3771 12.1491 68.8269 11.9917 68.343 11.6768C67.8624 11.3587 67.4846 10.9062 67.2095 10.3196C66.9377 9.72964 66.8018 9.02202 66.8018 8.19673C66.8018 7.37145 66.9394 6.66548 67.2145 6.07884C67.4929 5.49219 67.874 5.04309 68.3579 4.73153C68.8418 4.41998 69.3904 4.2642 70.0035 4.2642C70.4775 4.2642 70.8586 4.34375 71.147 4.50284C71.4387 4.65862 71.664 4.84091 71.8231 5.04972C71.9855 5.25852 72.1115 5.44247 72.201 5.60156H72.2905V1.81818H73.777V12H72.3253V10.8118H72.201C72.1115 10.9742 71.9822 11.1598 71.8132 11.3686C71.6475 11.5774 71.4188 11.7597 71.1271 11.9155C70.8354 12.0713 70.4576 12.1491 69.9936 12.1491ZM70.3217 10.8814C70.7493 10.8814 71.1105 10.7687 71.4055 10.5433C71.7038 10.3146 71.9292 9.99811 72.0816 9.59375C72.2374 9.18939 72.3153 8.71875 72.3153 8.18182C72.3153 7.65151 72.2391 7.1875 72.0866 6.78977C71.9342 6.39205 71.7104 6.08215 71.4155 5.86009C71.1205 5.63802 70.7559 5.52699 70.3217 5.52699C69.8743 5.52699 69.5014 5.64299 69.2031 5.875C68.9048 6.10701 68.6794 6.42353 68.527 6.82457C68.3778 7.22562 68.3032 7.67803 68.3032 8.18182C68.3032 8.69223 68.3795 9.15128 68.5319 9.55895C68.6844 9.96662 68.9098 10.2898 69.2081 10.5284C69.5097 10.7637 69.8809 10.8814 70.3217 10.8814Z" fill="url(#paint2_linear_4268_19766)"/>
<path d="M19.6548 1.81818V12H18.1186V1.81818H19.6548ZM23.3992 7.46591V12H21.9127V4.36364H23.3396V5.60653H23.434C23.6097 5.20218 23.8848 4.87737 24.2593 4.6321C24.6372 4.38684 25.1128 4.2642 25.6862 4.2642C26.2065 4.2642 26.6623 4.37358 27.0534 4.59233C27.4445 4.80777 27.7477 5.12926 27.9632 5.55682C28.1786 5.98437 28.2863 6.51302 28.2863 7.14276V12H26.7998V7.32173C26.7998 6.76823 26.6556 6.3357 26.3673 6.02415C26.0789 5.70928 25.6829 5.55185 25.1791 5.55185C24.8344 5.55185 24.5278 5.62642 24.2593 5.77557C23.9942 5.92472 23.7837 6.14347 23.6279 6.43182C23.4755 6.71686 23.3992 7.06155 23.3992 7.46591ZM36.1422 6.22798L34.7949 6.46662C34.7386 6.29427 34.6491 6.13021 34.5264 5.97443C34.4071 5.81865 34.2447 5.69105 34.0392 5.59162C33.8337 5.49219 33.5769 5.44247 33.2686 5.44247C32.8477 5.44247 32.4964 5.53693 32.2147 5.72585C31.9329 5.91146 31.7921 6.15175 31.7921 6.44673C31.7921 6.70194 31.8865 6.90743 32.0755 7.06321C32.2644 7.21899 32.5693 7.34659 32.9902 7.44602L34.2033 7.72443C34.9059 7.88684 35.4296 8.13707 35.7743 8.47514C36.119 8.81321 36.2914 9.25237 36.2914 9.79261C36.2914 10.25 36.1588 10.6577 35.8936 11.0156C35.6318 11.3703 35.2656 11.6487 34.7949 11.8509C34.3276 12.053 33.7857 12.1541 33.1692 12.1541C32.3141 12.1541 31.6164 11.9718 31.0762 11.6072C30.5359 11.2393 30.2045 10.7173 30.0818 10.0412L31.5186 9.82244C31.6081 10.197 31.7921 10.4804 32.0705 10.6726C32.3489 10.8615 32.7118 10.956 33.1593 10.956C33.6465 10.956 34.0359 10.8549 34.3276 10.6527C34.6193 10.4472 34.7651 10.197 34.7651 9.90199C34.7651 9.66335 34.6756 9.46283 34.4966 9.30043C34.321 9.13802 34.0508 9.01539 33.6862 8.93253L32.3936 8.64915C31.681 8.48674 31.1541 8.22822 30.8127 7.87358C30.4746 7.51894 30.3056 7.06984 30.3056 6.52628C30.3056 6.07552 30.4315 5.68111 30.6834 5.34304C30.9353 5.00497 31.2833 4.74148 31.7274 4.55256C32.1716 4.36032 32.6803 4.2642 33.2537 4.2642C34.079 4.2642 34.7286 4.44318 35.2026 4.80114C35.6765 5.15578 35.9898 5.63139 36.1422 6.22798ZM41.6304 4.36364V5.55682H37.4592V4.36364H41.6304ZM38.5778 2.53409H40.0644V9.75781C40.0644 10.0462 40.1074 10.2633 40.1936 10.4091C40.2798 10.5516 40.3908 10.6494 40.5267 10.7024C40.6659 10.7521 40.8167 10.777 40.9791 10.777C41.0984 10.777 41.2028 10.7687 41.2923 10.7521C41.3818 10.7356 41.4514 10.7223 41.5011 10.7124L41.7696 11.9403C41.6834 11.9735 41.5608 12.0066 41.4017 12.0398C41.2426 12.0762 41.0438 12.0961 40.8051 12.0994C40.414 12.1061 40.0494 12.0365 39.7114 11.8906C39.3733 11.7448 39.0999 11.5194 38.8911 11.2145C38.6823 10.9096 38.5778 10.5268 38.5778 10.0661V2.53409ZM45.6371 12.169C45.1532 12.169 44.7157 12.0795 44.3246 11.9006C43.9335 11.7183 43.6236 11.4548 43.3949 11.1101C43.1695 10.7654 43.0568 10.3428 43.0568 9.84233C43.0568 9.41146 43.1397 9.05682 43.3054 8.77841C43.4711 8.5 43.6948 8.27959 43.9765 8.11719C44.2583 7.95478 44.5731 7.83215 44.9212 7.74929C45.2692 7.66643 45.6238 7.60346 45.9851 7.56037C46.4425 7.50734 46.8137 7.46425 47.0987 7.43111C47.3837 7.39465 47.5909 7.33665 47.7202 7.2571C47.8494 7.17756 47.914 7.0483 47.914 6.86932V6.83452C47.914 6.40033 47.7914 6.06392 47.5462 5.82528C47.3042 5.58665 46.9429 5.46733 46.4623 5.46733C45.9619 5.46733 45.5675 5.57836 45.2791 5.80043C44.9941 6.01918 44.7969 6.26278 44.6875 6.53125L43.2905 6.21307C43.4562 5.74905 43.6981 5.37453 44.0163 5.08949C44.3378 4.80114 44.7074 4.59233 45.125 4.46307C45.5426 4.33049 45.9818 4.2642 46.4425 4.2642C46.7474 4.2642 47.0705 4.30066 47.4119 4.37358C47.7566 4.44318 48.0781 4.57244 48.3764 4.76136C48.678 4.95028 48.9249 5.22041 49.1172 5.57173C49.3094 5.91974 49.4055 6.37216 49.4055 6.92898V12H47.9538V10.956H47.8942C47.798 11.1482 47.6539 11.3371 47.4616 11.5227C47.2694 11.7083 47.0225 11.8625 46.7209 11.9851C46.4193 12.1077 46.058 12.169 45.6371 12.169ZM45.9602 10.9759C46.3712 10.9759 46.7225 10.8946 47.0142 10.7322C47.3092 10.5698 47.5329 10.3577 47.6854 10.0959C47.8411 9.83073 47.919 9.54735 47.919 9.24574V8.26136C47.866 8.31439 47.7632 8.36411 47.6108 8.41051C47.4616 8.4536 47.2909 8.49171 47.0987 8.52486C46.9065 8.55469 46.7192 8.58286 46.5369 8.60938C46.3546 8.63258 46.2022 8.65246 46.0795 8.66903C45.7912 8.70549 45.5277 8.76681 45.289 8.85298C45.0537 8.93916 44.8648 9.06345 44.7223 9.22585C44.5831 9.38494 44.5135 9.59706 44.5135 9.86222C44.5135 10.2301 44.6494 10.5085 44.9212 10.6974C45.1929 10.883 45.5393 10.9759 45.9602 10.9759ZM53.012 1.81818V12H51.5255V1.81818H53.012ZM56.6383 1.81818V12H55.1518V1.81818H56.6383ZM62.0693 12.1541C61.3169 12.1541 60.669 11.9934 60.1254 11.6719C59.5852 11.3471 59.1676 10.8913 58.8726 10.3047C58.5809 9.71473 58.4351 9.02367 58.4351 8.23153C58.4351 7.44934 58.5809 6.75994 58.8726 6.16335C59.1676 5.56676 59.5785 5.10109 60.1055 4.76633C60.6358 4.43158 61.2556 4.2642 61.9649 4.2642C62.3958 4.2642 62.8134 4.33546 63.2177 4.47798C63.6221 4.6205 63.985 4.84422 64.3065 5.14915C64.628 5.45407 64.8816 5.85014 65.0672 6.33736C65.2528 6.82126 65.3456 7.40956 65.3456 8.10227V8.62926H59.2753V7.51562H63.8889C63.8889 7.12453 63.8094 6.77817 63.6503 6.47656C63.4912 6.17164 63.2675 5.93134 62.9791 5.75568C62.6941 5.58002 62.3593 5.49219 61.9749 5.49219C61.5572 5.49219 61.1927 5.59493 60.8811 5.80043C60.5729 6.0026 60.3342 6.26776 60.1652 6.59588C59.9995 6.92069 59.9166 7.27367 59.9166 7.65483V8.52486C59.9166 9.03527 60.0061 9.46946 60.1851 9.82741C60.3674 10.1854 60.6209 10.4588 60.9457 10.6477C61.2705 10.8333 61.65 10.9261 62.0842 10.9261C62.3659 10.9261 62.6228 10.8864 62.8548 10.8068C63.0868 10.724 63.2874 10.6013 63.4564 10.4389C63.6254 10.2765 63.7547 10.076 63.8442 9.83736L65.2511 10.0909C65.1384 10.5052 64.9363 10.8681 64.6446 11.1797C64.3562 11.4879 63.9933 11.7282 63.5558 11.9006C63.1216 12.0696 62.6261 12.1541 62.0693 12.1541ZM69.9936 12.1491C69.3771 12.1491 68.8269 11.9917 68.343 11.6768C67.8624 11.3587 67.4846 10.9062 67.2095 10.3196C66.9377 9.72964 66.8018 9.02202 66.8018 8.19673C66.8018 7.37145 66.9394 6.66548 67.2145 6.07884C67.4929 5.49219 67.874 5.04309 68.3579 4.73153C68.8418 4.41998 69.3904 4.2642 70.0035 4.2642C70.4775 4.2642 70.8586 4.34375 71.147 4.50284C71.4387 4.65862 71.664 4.84091 71.8231 5.04972C71.9855 5.25852 72.1115 5.44247 72.201 5.60156H72.2905V1.81818H73.777V12H72.3253V10.8118H72.201C72.1115 10.9742 71.9822 11.1598 71.8132 11.3686C71.6475 11.5774 71.4188 11.7597 71.1271 11.9155C70.8354 12.0713 70.4576 12.1491 69.9936 12.1491ZM70.3217 10.8814C70.7493 10.8814 71.1105 10.7687 71.4055 10.5433C71.7038 10.3146 71.9292 9.99811 72.0816 9.59375C72.2374 9.18939 72.3153 8.71875 72.3153 8.18182C72.3153 7.65151 72.2391 7.1875 72.0866 6.78977C71.9342 6.39205 71.7104 6.08215 71.4155 5.86009C71.1205 5.63802 70.7559 5.52699 70.3217 5.52699C69.8743 5.52699 69.5014 5.64299 69.2031 5.875C68.9048 6.10701 68.6794 6.42353 68.527 6.82457C68.3778 7.22562 68.3032 7.67803 68.3032 8.18182C68.3032 8.69223 68.3795 9.15128 68.5319 9.55895C68.6844 9.96662 68.9098 10.2898 69.2081 10.5284C69.5097 10.7637 69.8809 10.8814 70.3217 10.8814Z" fill="black" fill-opacity="0.2"/>
<defs>
<linearGradient id="paint0_linear_4268_19766" x1="16.6545" y1="4.98303" x2="-8.67376" y2="4.95795" gradientUnits="userSpaceOnUse">
<stop stop-color="#2CFFE4"/>
<stop offset="1" stop-color="#A45EFF"/>
</linearGradient>
<linearGradient id="paint1_linear_4268_19766" x1="12.5169" y1="6.77965" x2="-1.95641" y2="6.75673" gradientUnits="userSpaceOnUse">
<stop stop-color="#2CFFE4"/>
<stop offset="1" stop-color="#A45EFF"/>
</linearGradient>
<linearGradient id="paint2_linear_4268_19766" x1="85.9974" y1="5.55931" x2="-18.9308" y2="4.95675" gradientUnits="userSpaceOnUse">
<stop stop-color="#2CFFE4"/>
<stop offset="1" stop-color="#A45EFF"/>
</linearGradient>
</defs>
</svg>
