<svg width="74" height="74" viewBox="0 0 74 74" fill="none" xmlns="http://www.w3.org/2000/svg">
<path d="M37 72C56.33 72 72 56.33 72 37C72 17.67 56.33 2 37 2C17.67 2 2 17.67 2 37C2 56.33 17.67 72 37 72Z" fill="#3396FF" stroke="#66B1FF" stroke-width="3" stroke-miterlimit="22.9256"/>
<path d="M23.4002 28.0464C30.8942 20.7209 43.0754 20.7209 50.5975 28.0464L51.4956 28.9165C51.8605 29.2814 51.8605 29.8708 51.4956 30.2357L48.4082 33.2389C48.2117 33.4354 47.903 33.4354 47.7346 33.2389L46.4996 32.032C41.251 26.9237 32.7747 26.9237 27.5261 32.032L26.2069 33.3231C26.0104 33.5196 25.7017 33.5196 25.5333 33.3231L22.4459 30.3199C22.081 29.955 22.081 29.3656 22.4459 29.0007L23.4282 28.0464H23.4002ZM56.9687 34.2774L59.7193 36.9719C60.0842 37.3367 60.0842 37.9261 59.7193 38.291L47.3136 50.3881C46.9487 50.7529 46.3312 50.7529 45.9663 50.3881L37.1532 41.7994C37.069 41.7152 36.9006 41.7152 36.8164 41.7994L28.0032 50.3881C27.6384 50.7529 27.0209 50.7529 26.656 50.3881L14.2502 38.291C13.8853 37.9261 13.8853 37.3367 14.2502 36.9719L17.0008 34.2774C17.3657 33.9125 17.9832 33.9125 18.3481 34.2774L27.1612 42.866C27.2454 42.9502 27.4138 42.9502 27.498 42.866L36.3112 34.2774C36.676 33.9125 37.2935 33.9125 37.6584 34.2774L46.4716 42.866C46.5558 42.9502 46.7242 42.9502 46.8084 42.866L55.6215 34.2774C55.9864 33.9125 56.6039 33.9125 56.9687 34.2774Z" fill="white"/>
</svg>
